<svg width="816" height="230" viewBox="0 0 816 230" fill="none" xmlns="http://www.w3.org/2000/svg">
<path d="M103.372 0.825607C64.1717 4.5256 29.6717 28.2256 11.8717 63.8256C2.47169 82.6256 -0.828313 98.6256 0.171687 120.826C1.57169 149.926 12.4717 174.426 33.2717 195.426C85.5717 248.126 173.672 237.726 212.272 174.226C217.672 165.226 223.272 151.626 225.972 140.826C227.772 133.126 228.272 128.426 228.272 115.826C228.372 98.6256 227.272 91.0256 222.572 77.8256C213.972 53.1256 198.272 32.8256 176.972 19.0256C161.372 8.82561 144.372 2.92561 124.872 0.825607C114.572 -0.274399 114.972 -0.274399 103.372 0.825607ZM138.872 17.3256C167.772 25.2256 191.072 44.1256 204.272 70.5256C223.472 108.926 215.572 155.426 184.772 186.026C170.172 200.526 151.772 210.126 131.472 213.726C123.072 215.226 104.372 215.126 95.6717 213.426C49.8717 204.626 16.5717 166.126 14.1717 119.326C13.2717 100.026 16.9717 85.5256 26.1717 72.6256C38.1717 55.8256 55.9717 46.8256 76.8717 46.8256C88.1717 46.8256 95.9717 48.7256 106.072 54.0256C120.072 61.3256 132.272 76.1256 136.372 90.8256C137.172 93.8256 138.372 97.9256 138.872 99.9256C140.772 106.726 149.472 107.626 151.972 101.226C152.672 99.1256 152.472 96.5256 150.872 90.4256C145.372 68.1256 130.872 50.2256 110.372 40.3256C101.572 36.1256 91.1717 32.9256 85.2717 32.7256L82.3717 32.6256L85.7717 31.5256C90.7717 29.9256 106.672 32.0256 117.172 35.6256C128.972 39.6256 139.072 46.2256 147.972 55.5256C157.172 65.2256 162.972 75.4256 166.372 87.8256C167.872 93.0256 169.372 98.3256 169.972 99.6256C171.872 104.326 179.372 104.426 181.872 99.7256C185.072 93.8256 176.772 69.5256 166.572 55.3256C161.972 48.7256 151.072 38.0256 144.872 33.8256C129.972 23.7256 116.572 19.0256 95.5717 16.7256C94.8717 16.6256 95.9717 16.2256 97.8717 15.7256C104.172 14.3256 131.672 15.4256 138.872 17.3256Z" fill="#1081D1"/>
<path d="M25.2858 115.225C22.0858 117.725 21.3858 120.325 22.4858 127.025C29.3858 170.125 65.5858 201.225 108.586 201.125C125.086 201.025 135.086 198.625 149.586 191.225C170.386 180.525 187.086 159.925 193.386 136.925C195.886 127.425 195.986 123.525 193.386 120.925C188.786 116.325 181.986 118.925 180.786 125.825C176.586 151.425 158.186 173.425 133.686 182.225C125.986 185.025 113.386 187.325 108.886 186.725C106.286 186.425 106.586 186.225 111.186 185.125C135.486 179.525 156.086 160.625 163.886 136.525C167.486 125.425 167.486 121.225 163.886 118.225C161.786 116.425 160.386 115.925 158.486 116.425C154.486 117.425 153.386 119.025 151.386 126.925C145.886 148.525 129.586 165.125 108.886 170.425C101.286 172.325 87.4858 172.325 79.9858 170.425C58.6858 164.825 41.4858 146.425 36.9858 124.425C35.9858 119.625 34.8858 116.925 33.3858 115.725C30.7858 113.625 27.5858 113.425 25.2858 115.225Z" fill="#083991"/>
<path d="M342.872 110.506V169.006H351.872H360.872V144.506C360.872 131.106 361.372 117.906 361.972 115.206C363.272 109.106 368.472 102.606 373.472 101.006C378.872 99.2059 387.872 100.106 391.772 103.006C398.372 107.606 398.872 110.206 398.872 141.206V169.006H408.372H417.872V138.706C417.872 113.706 417.572 107.406 416.272 102.906C412.572 90.6059 404.072 84.0059 390.772 83.2059C380.072 82.6059 374.172 84.7059 366.972 91.6059C363.972 94.6059 361.372 97.0059 361.172 97.0059C360.972 97.0059 360.872 86.9059 360.872 74.5059V52.0059H351.872H342.872V110.506Z" fill="#1081D1"/>
<path d="M730.872 62.0059V71.0059H741.372H751.872V62.0059V53.0059H741.372H730.872V62.0059Z" fill="#083991"/>
<path d="M773.872 72.4062V83.9062L768.672 84.2062L763.372 84.5062V92.5062V100.506L768.572 100.806L773.772 101.106L774.072 127.306C774.372 149.906 774.672 154.106 776.172 157.506C780.472 167.106 787.172 170.506 800.572 169.806C806.172 169.506 810.572 168.706 812.672 167.706C815.872 166.006 815.872 165.906 815.872 158.406C815.872 151.006 815.772 150.806 813.672 151.406C805.772 153.806 799.172 153.306 795.872 150.006C793.972 148.106 793.872 146.606 793.872 124.506V101.006H804.872H815.872V92.5062V84.0062H804.872H793.872V72.5062V61.0062H783.872H773.872V72.4062Z" fill="#083991"/>
<path d="M285.372 84.3059C278.872 86.5059 275.472 88.6059 271.572 92.9059C267.172 97.8059 265.472 103.606 266.172 111.306C267.172 122.106 273.372 127.506 291.872 133.506C306.572 138.306 310.872 141.206 310.872 146.506C310.872 153.106 303.172 156.506 292.172 154.806C286.372 153.906 274.772 149.206 271.772 146.406C270.372 145.106 269.772 145.606 266.072 151.206C261.172 158.606 261.372 158.906 271.172 163.906C279.472 168.006 287.772 170.006 296.872 170.006C316.172 170.006 328.172 160.306 328.272 144.606C328.372 133.506 322.572 126.706 308.672 121.506C304.872 120.106 298.672 117.806 294.672 116.306C283.172 112.106 280.172 107.306 285.272 101.306C287.572 98.6059 288.172 98.5059 296.072 98.5059C303.372 98.5059 305.172 98.9059 311.672 101.906C315.672 103.806 319.072 105.106 319.272 104.906C319.472 104.706 321.072 101.906 322.872 98.7059C326.872 91.6059 326.572 91.2059 315.572 86.9059C305.972 83.2059 292.172 82.1059 285.372 84.3059Z" fill="#1081D1"/>
<path d="M458.372 84.0059C450.872 85.2059 439.172 88.7059 438.372 90.0059C437.972 90.6059 438.672 94.0059 439.872 97.6059C442.372 104.906 441.272 104.606 452.372 101.606C461.372 99.2059 473.372 99.5059 478.872 102.206C484.072 104.906 487.872 111.106 487.872 117.106V120.806L482.772 119.506C465.672 115.006 446.072 117.706 437.572 125.806C428.072 134.806 427.572 152.406 436.472 161.306C443.072 167.906 447.772 169.506 460.372 169.506C470.372 169.506 471.872 169.206 476.372 166.806C479.172 165.406 482.472 163.006 483.772 161.606C485.172 160.206 486.572 159.006 487.072 159.006C487.472 159.006 487.872 161.206 487.872 164.006V169.006H496.972H505.972L505.672 137.706L505.372 106.506L502.572 100.806C497.272 90.0059 487.472 84.4059 472.572 83.6059C468.072 83.3059 461.672 83.5059 458.372 84.0059ZM484.172 131.006L487.872 132.106V137.906C487.872 142.306 487.272 144.506 485.572 147.106C479.872 155.606 466.672 159.506 457.172 155.506C452.072 153.306 450.072 151.306 448.872 147.106C446.972 139.806 450.672 133.306 458.572 130.406C462.872 128.806 477.872 129.106 484.172 131.006Z" fill="#1081D1"/>
<path d="M560.672 84.5059C554.772 86.7059 550.172 90.7059 546.072 97.3059L542.372 103.406L542.072 93.7059L541.772 84.0059H532.872H523.872V126.506V169.006H532.772H541.672L542.172 148.206C542.672 125.606 543.472 121.306 548.672 113.806C552.472 108.306 559.972 104.006 567.372 103.306L572.872 102.706V92.9059V83.0059L568.672 83.1059C566.272 83.1059 562.672 83.8059 560.672 84.5059Z" fill="#1081D1"/>
<path d="M620.572 84.4059C618.572 85.2059 615.372 86.9059 613.472 88.3059C610.572 90.6059 608.872 92.7059 603.172 101.606C602.172 103.206 601.972 101.706 601.972 93.7059L601.872 84.0059H592.872H583.872V126.506V169.006H592.772H601.672L602.072 147.706C602.472 128.606 602.772 125.906 604.872 120.606C608.872 110.206 618.772 103.006 629.072 103.006H631.872V93.0059V83.0059H628.172C626.072 83.1059 622.672 83.7059 620.572 84.4059Z" fill="#1081D1"/>
<path d="M663.372 84.7067C652.572 88.6067 645.272 95.6067 639.672 107.507C633.772 120.307 634.772 138.607 642.172 150.907C655.472 173.107 691.472 177.407 709.472 158.907L713.272 155.007L707.772 150.107L702.372 145.207L699.472 147.707C693.972 152.307 688.672 154.307 680.872 154.807C669.272 155.507 661.772 151.207 657.272 141.507C652.972 132.307 650.672 133.007 685.872 133.007H716.872V126.207C716.872 108.507 708.472 93.4067 695.172 86.8067C689.172 83.9067 687.472 83.5067 678.472 83.2067C670.672 83.0067 667.172 83.4067 663.372 84.7067ZM685.372 99.9067C691.772 102.807 696.572 109.407 698.172 117.707L698.872 121.007H676.872C652.372 121.007 653.772 121.507 656.072 113.907C657.572 108.707 663.372 102.207 668.272 99.9067C673.472 97.5067 680.272 97.5067 685.372 99.9067Z" fill="#1081D1"/>
<path d="M731.872 126.506V169.006H741.372H750.872V126.506V84.0059H741.372H731.872V126.506Z" fill="#083991"/>
</svg>
