<svg width="229" height="230" viewBox="0 0 229 230" fill="none" xmlns="http://www.w3.org/2000/svg">
<path d="M103.372 0.825607C64.1717 4.5256 29.6717 28.2256 11.8717 63.8256C2.47169 82.6256 -0.828313 98.6256 0.171687 120.826C1.57169 149.926 12.4717 174.426 33.2717 195.426C85.5717 248.126 173.672 237.726 212.272 174.226C217.672 165.226 223.272 151.626 225.972 140.826C227.772 133.126 228.272 128.426 228.272 115.826C228.372 98.6256 227.272 91.0256 222.572 77.8256C213.972 53.1256 198.272 32.8256 176.972 19.0256C161.372 8.82561 144.372 2.92561 124.872 0.825607C114.572 -0.274399 114.972 -0.274399 103.372 0.825607ZM138.872 17.3256C167.772 25.2256 191.072 44.1256 204.272 70.5256C223.472 108.926 215.572 155.426 184.772 186.026C170.172 200.526 151.772 210.126 131.472 213.726C123.072 215.226 104.372 215.126 95.6717 213.426C49.8717 204.626 16.5717 166.126 14.1717 119.326C13.2717 100.026 16.9717 85.5256 26.1717 72.6256C38.1717 55.8256 55.9717 46.8256 76.8717 46.8256C88.1717 46.8256 95.9717 48.7256 106.072 54.0256C120.072 61.3256 132.272 76.1256 136.372 90.8256C137.172 93.8256 138.372 97.9256 138.872 99.9256C140.772 106.726 149.472 107.626 151.972 101.226C152.672 99.1256 152.472 96.5256 150.872 90.4256C145.372 68.1256 130.872 50.2256 110.372 40.3256C101.572 36.1256 91.1717 32.9256 85.2717 32.7256L82.3717 32.6256L85.7717 31.5256C90.7717 29.9256 106.672 32.0256 117.172 35.6256C128.972 39.6256 139.072 46.2256 147.972 55.5256C157.172 65.2256 162.972 75.4256 166.372 87.8256C167.872 93.0256 169.372 98.3256 169.972 99.6256C171.872 104.326 179.372 104.426 181.872 99.7256C185.072 93.8256 176.772 69.5256 166.572 55.3256C161.972 48.7256 151.072 38.0256 144.872 33.8256C129.972 23.7256 116.572 19.0256 95.5717 16.7256C94.8717 16.6256 95.9717 16.2256 97.8717 15.7256C104.172 14.3256 131.672 15.4256 138.872 17.3256Z" fill="#1081D1"/>
<path d="M25.2858 115.225C22.0858 117.725 21.3858 120.325 22.4858 127.025C29.3858 170.125 65.5858 201.225 108.586 201.125C125.086 201.025 135.086 198.625 149.586 191.225C170.386 180.525 187.086 159.925 193.386 136.925C195.886 127.425 195.986 123.525 193.386 120.925C188.786 116.325 181.986 118.925 180.786 125.825C176.586 151.425 158.186 173.425 133.686 182.225C125.986 185.025 113.386 187.325 108.886 186.725C106.286 186.425 106.586 186.225 111.186 185.125C135.486 179.525 156.086 160.625 163.886 136.525C167.486 125.425 167.486 121.225 163.886 118.225C161.786 116.425 160.386 115.925 158.486 116.425C154.486 117.425 153.386 119.025 151.386 126.925C145.886 148.525 129.586 165.125 108.886 170.425C101.286 172.325 87.4858 172.325 79.9858 170.425C58.6858 164.825 41.4858 146.425 36.9858 124.425C35.9858 119.625 34.8858 116.925 33.3858 115.725C30.7858 113.625 27.5858 113.425 25.2858 115.225Z" fill="#083991"/>
</svg>
