<svg width="554" height="119" viewBox="0 0 554 119" fill="none" xmlns="http://www.w3.org/2000/svg">
<path d="M80.8716 58.5059V117.006H89.8716H98.8716V92.5059C98.8716 79.1059 99.3716 65.9059 99.9716 63.2059C101.272 57.1059 106.472 50.6059 111.472 49.0059C116.872 47.2059 125.872 48.1059 129.772 51.0059C136.372 55.6059 136.872 58.2059 136.872 89.2059V117.006H146.372H155.872V86.7059C155.872 61.7059 155.572 55.4059 154.272 50.9059C150.572 38.6059 142.072 32.0059 128.772 31.2059C118.072 30.6059 112.172 32.7059 104.972 39.6059C101.972 42.6059 99.3716 45.0059 99.1716 45.0059C98.9716 45.0059 98.8716 34.9059 98.8716 22.5059V0.00585938H89.8716H80.8716V58.5059Z" fill="#1081D1"/>
<path d="M468.872 10.0059V19.0059H479.372H489.872V10.0059V1.00586H479.372H468.872V10.0059Z" fill="#083991"/>
<path d="M511.872 20.4062V31.9062L506.672 32.2062L501.372 32.5062V40.5062V48.5062L506.572 48.8062L511.772 49.1062L512.072 75.3062C512.372 97.9062 512.672 102.106 514.172 105.506C518.472 115.106 525.172 118.506 538.572 117.806C544.172 117.506 548.572 116.706 550.672 115.706C553.872 114.006 553.872 113.906 553.872 106.406C553.872 99.0062 553.772 98.8062 551.672 99.4062C543.772 101.806 537.172 101.306 533.872 98.0062C531.972 96.1062 531.872 94.6062 531.872 72.5062V49.0062H542.872H553.872V40.5062V32.0062H542.872H531.872V20.5062V9.00616H521.872H511.872V20.4062Z" fill="#083991"/>
<path d="M23.3718 32.3059C16.8718 34.5059 13.4718 36.6059 9.57184 40.9059C5.17184 45.8059 3.47184 51.6059 4.17184 59.3059C5.17184 70.1059 11.3718 75.5059 29.8718 81.5059C44.5718 86.3059 48.8718 89.2059 48.8718 94.5059C48.8718 101.106 41.1718 104.506 30.1718 102.806C24.3718 101.906 12.7718 97.2059 9.77184 94.4059C8.37184 93.1059 7.77184 93.6059 4.07184 99.2059C-0.828157 106.606 -0.628157 106.906 9.17184 111.906C17.4718 116.006 25.7718 118.006 34.8718 118.006C54.1718 118.006 66.1718 108.306 66.2718 92.6059C66.3718 81.5059 60.5718 74.7059 46.6718 69.5059C42.8718 68.1059 36.6718 65.8059 32.6718 64.3059C21.1718 60.1059 18.1718 55.3059 23.2718 49.3059C25.5718 46.6059 26.1718 46.5059 34.0718 46.5059C41.3718 46.5059 43.1718 46.9059 49.6718 49.9059C53.6718 51.8059 57.0718 53.1059 57.2718 52.9059C57.4718 52.7059 59.0718 49.9059 60.8718 46.7059C64.8718 39.6059 64.5718 39.2059 53.5718 34.9059C43.9718 31.2059 30.1718 30.1059 23.3718 32.3059Z" fill="#1081D1"/>
<path d="M196.372 32.0059C188.872 33.2059 177.172 36.7059 176.372 38.0059C175.972 38.6059 176.672 42.0059 177.872 45.6059C180.372 52.9059 179.272 52.6059 190.372 49.6059C199.372 47.2059 211.372 47.5059 216.872 50.2059C222.072 52.9059 225.872 59.1059 225.872 65.1059V68.8059L220.772 67.5059C203.672 63.0059 184.072 65.7059 175.572 73.8059C166.072 82.8059 165.572 100.406 174.472 109.306C181.072 115.906 185.772 117.506 198.372 117.506C208.372 117.506 209.872 117.206 214.372 114.806C217.172 113.406 220.472 111.006 221.772 109.606C223.172 108.206 224.572 107.006 225.072 107.006C225.472 107.006 225.872 109.206 225.872 112.006V117.006H234.972H243.972L243.672 85.7059L243.372 54.5059L240.572 48.8059C235.272 38.0059 225.472 32.4059 210.572 31.6059C206.072 31.3059 199.672 31.5059 196.372 32.0059ZM222.172 79.0059L225.872 80.1059V85.9059C225.872 90.3059 225.272 92.5059 223.572 95.1059C217.872 103.606 204.672 107.506 195.172 103.506C190.072 101.306 188.072 99.3059 186.872 95.1059C184.972 87.8059 188.672 81.3059 196.572 78.4059C200.872 76.8059 215.872 77.1059 222.172 79.0059Z" fill="#1081D1"/>
<path d="M298.672 32.5059C292.772 34.7059 288.172 38.7059 284.072 45.3059L280.372 51.4059L280.072 41.7059L279.772 32.0059H270.872H261.872V74.5059V117.006H270.772H279.672L280.172 96.2059C280.672 73.6059 281.472 69.3059 286.672 61.8059C290.472 56.3059 297.972 52.0059 305.372 51.3059L310.872 50.7059V40.9059V31.0059L306.672 31.1059C304.272 31.1059 300.672 31.8059 298.672 32.5059Z" fill="#1081D1"/>
<path d="M358.572 32.4059C356.572 33.2059 353.372 34.9059 351.472 36.3059C348.572 38.6059 346.872 40.7059 341.172 49.6059C340.172 51.2059 339.972 49.7059 339.972 41.7059L339.872 32.0059H330.872H321.872V74.5059V117.006H330.772H339.672L340.072 95.7059C340.472 76.6059 340.772 73.9059 342.872 68.6059C346.872 58.2059 356.772 51.0059 367.072 51.0059H369.872V41.0059V31.0059H366.172C364.072 31.1059 360.672 31.7059 358.572 32.4059Z" fill="#1081D1"/>
<path d="M401.372 32.7067C390.572 36.6067 383.272 43.6067 377.672 55.5067C371.772 68.3067 372.772 86.6067 380.172 98.9067C393.472 121.107 429.472 125.407 447.472 106.907L451.272 103.007L445.772 98.1067L440.372 93.2067L437.472 95.7067C431.972 100.307 426.672 102.307 418.872 102.807C407.272 103.507 399.772 99.2067 395.272 89.5067C390.972 80.3067 388.672 81.0067 423.872 81.0067H454.872V74.2067C454.872 56.5067 446.472 41.4067 433.172 34.8067C427.172 31.9067 425.472 31.5067 416.472 31.2067C408.672 31.0067 405.172 31.4067 401.372 32.7067ZM423.372 47.9067C429.772 50.8067 434.572 57.4067 436.172 65.7067L436.872 69.0067H414.872C390.372 69.0067 391.772 69.5067 394.072 61.9067C395.572 56.7067 401.372 50.2067 406.272 47.9067C411.472 45.5067 418.272 45.5067 423.372 47.9067Z" fill="#1081D1"/>
<path d="M469.872 74.5059V117.006H479.372H488.872V74.5059V32.0059H479.372H469.872V74.5059Z" fill="#083991"/>
</svg>
