<svg width="200" height="139" viewBox="0 0 200 139" fill="none" xmlns="http://www.w3.org/2000/svg">
<path d="M199.294 0.691456C198.836 0.242296 198.213 -0.00697346 197.565 0.000148526H12.0739C11.426 -0.00697346 10.8024 0.242296 10.3443 0.691456C9.88624 1.14062 9.63204 1.75216 9.6393 2.38744V65.5841L20.1576 81.0555C23.9513 86.6761 22.7045 94.2112 17.2936 98.3676L1.67079 110.301C-0.00164231 111.545 -0.487782 113.805 0.528558 115.606L1.80346 117.885C5.86834 125.466 10.8266 132.553 16.5765 139H197.565C198.893 139.009 199.98 137.967 200 136.664V2.38744C200.007 1.75216 199.753 1.14062 199.294 0.691456ZM73.5162 79.6401V79.6182L28.1663 127.261C26.4987 129.015 23.6971 129.111 21.909 127.476C20.1203 125.841 20.0225 123.094 21.6896 121.34L67.0395 73.7193C68.7071 71.9654 71.5087 71.8695 73.2968 73.5043C75.0855 75.1395 75.1838 77.8867 73.5162 79.6401ZM104.819 76.2196C101.629 76.2339 98.5203 75.2283 95.9652 73.3547L21.9729 18.3364C20.0245 16.8812 19.6478 14.1525 21.1318 12.2414C22.6159 10.3308 25.3986 9.96143 27.3475 11.4167L101.309 66.435C103.403 67.9263 106.237 67.9263 108.331 66.435L182.314 11.4167C184.262 9.96761 187.04 10.3417 188.518 12.2523C189.997 14.1629 189.615 16.8869 187.666 18.3364L113.673 73.3547C111.118 75.2283 108.01 76.2339 104.819 76.2196ZM188.011 127.474C187.153 128.26 186.011 128.68 184.837 128.64C183.662 128.6 182.553 128.104 181.752 127.261L136.406 79.6187C134.866 77.8482 135.023 75.2012 136.763 73.6187C138.503 72.0357 141.207 72.0803 142.892 73.7193L188.228 121.34C189.895 123.093 189.798 125.839 188.011 127.474Z" fill="#1081D1"/>
</svg>
