<svg width="200" height="200" viewBox="0 0 200 200" fill="none" xmlns="http://www.w3.org/2000/svg">
<path d="M200 99.9978C200 44.7747 155.224 0 100 0C44.7757 0 0 44.7747 0 99.9978C0 149.905 36.5631 191.277 84.3763 198.786V128.91H58.979V99.9978H84.3763V77.962C84.3763 52.9028 99.3109 39.0513 122.149 39.0513C133.09 39.0513 144.537 41.006 144.537 41.006V65.6152H131.922C119.505 65.6152 115.624 73.3214 115.624 81.2386V99.9978H143.355L138.926 128.91H115.624V198.786C163.437 191.291 200 149.919 200 99.9978Z" fill="#1977F3"/>
<path d="M138.926 128.914L143.355 100.001H115.624V81.2419C115.624 73.3389 119.491 65.6186 131.922 65.6186H144.537V41.0094C144.537 41.0094 133.09 39.0547 122.149 39.0547C99.311 39.0547 84.3764 52.8921 84.3764 77.9654V100.001H58.9791V128.914H84.3764V198.79C89.4671 199.591 94.6843 199.999 100 199.999C105.316 199.999 110.533 199.577 115.624 198.79V128.914H138.926Z" fill="#FEFEFE"/>
</svg>
