<svg width="200" height="200" viewBox="0 0 200 200" fill="none" xmlns="http://www.w3.org/2000/svg">
<path d="M198.002 165.605L154.182 136.392C152.221 135.098 149.596 135.524 148.145 137.372L135.386 153.775C131.251 159.164 123.788 160.702 117.859 157.387L115.5 156.092C106.989 151.449 96.394 145.673 75.3612 124.641C54.3284 103.609 48.5477 93.0143 43.9092 84.4993L42.6092 82.1406C39.2946 76.2134 40.8328 68.7517 46.2214 64.6186L62.6207 51.8554C64.4703 50.4061 64.8968 47.7797 63.6003 45.8196L34.3909 1.99619C33.0625 0.00761016 30.408 -0.590589 28.3549 0.635769L10.0197 11.6298C6.086 13.9256 3.19289 17.654 1.94566 22.0343C-4.0762 43.9625 0.989412 82.3584 59.3102 140.682C117.631 199.005 156.02 204.08 177.967 198.053C182.349 196.804 186.077 193.91 188.372 189.974L199.362 171.64C200.592 169.588 199.993 166.932 198.002 165.605Z" fill="#1081D1"/>
</svg>
