<svg width="200" height="200" viewBox="0 0 200 200" fill="none" xmlns="http://www.w3.org/2000/svg">
<path d="M97.7367 0.0242615C83.3491 0.337601 68.7887 4.02205 55.0708 10.8183C43.5564 16.5124 33.5867 24.0326 25.896 32.7953C17.6653 42.1955 11.6272 52.0171 7.16623 63.2649C4.15262 70.8499 2.08953 78.5321 0.966181 86.2792C-0.243586 94.6421 -0.319196 103.643 0.750151 112.211C2.84564 129.045 9.93141 146.603 20.1928 160.4C25.4639 167.499 30.7891 172.891 38.1665 178.628C52.0464 189.39 69.0047 196.618 86.1791 199.082C91.407 199.827 93.913 200 100.005 200C105.157 200 106.086 199.957 110.05 199.557C122.721 198.293 136.255 194.036 148.234 187.564C157.274 182.691 166.067 176.024 172.094 169.487C182.885 157.786 190.219 145.371 195.09 130.525C201.474 111.076 201.636 90.5795 195.555 70.9904C193.686 64.9505 192.012 60.9419 188.858 54.8912C183.036 43.7082 175.486 33.4004 168.53 27.1012C157.112 16.7717 144.896 9.64055 130.573 4.94044C119.934 1.43968 108.776 -0.224258 97.7367 0.0242615ZM146.289 60.6609C146.592 60.8122 147.164 61.2552 147.564 61.655C148.806 62.8867 149.217 64.1401 149.119 66.3659C149.076 67.5328 148.385 70.8391 140.791 106.592C136.244 128.018 132.388 146.041 132.237 146.646C131.092 151.27 128.769 152.718 124.848 151.227C123.487 150.708 124.719 151.594 102.759 135.29C100.448 133.572 98.5036 132.167 98.428 132.156C98.3632 132.146 95.6412 134.717 92.39 137.872C89.1387 141.016 86.1035 143.88 85.6498 144.215C84.2672 145.263 82.539 146.03 81.5669 146.03C81.3724 146.03 81.2104 145.976 81.2104 145.922C81.2104 145.738 83.1547 120.822 83.1871 120.617C83.1979 120.52 88.1234 115.949 94.1182 110.46C100.124 104.972 110.634 95.3661 117.482 89.1101C124.319 82.8541 130.001 77.5921 130.087 77.4192C130.476 76.6629 130.152 76.3063 129.029 76.2523C128.305 76.2199 128.197 76.2415 127.441 76.6305C126.998 76.8682 119.458 81.5791 110.698 87.1004C80.0979 106.387 69.426 113.097 69.2424 113.151C69.1343 113.172 63.4636 111.487 56.6262 109.402C49.7997 107.316 43.8157 105.49 43.3404 105.339C42.2171 105.004 41.2341 104.366 40.8561 103.707C40.0892 102.411 40.8453 100.693 42.7139 99.4611C43.7941 98.748 44.5178 98.4562 53.3966 95.0311C57.7388 93.3564 64.0252 90.9253 67.3845 89.6287C70.7438 88.3321 78.3048 85.4148 84.1808 83.1458C90.0676 80.8768 102.122 76.2199 110.969 72.8056C119.826 69.3913 129.806 65.5339 133.166 64.2374C136.525 62.9408 139.852 61.655 140.565 61.3741C142.833 60.4989 143.449 60.3476 144.669 60.38C145.555 60.4016 145.846 60.4449 146.289 60.6609Z" fill="#2CA5E0"/>
</svg>
