<svg width="200" height="200" viewBox="0 0 200 200" fill="none" xmlns="http://www.w3.org/2000/svg">
<path d="M91.6283 0.190312C86.424 0.476156 78.6278 1.92579 72.3418 3.74294C53.5656 9.17397 36.9935 19.791 24.3807 34.4711C11.0537 49.9475 3.37989 67.2003 0.828767 87.3522C-2.47749 113.446 4.17584 139.11 19.5846 159.732C31.9321 176.27 48.8103 188.541 68.0968 195.054C74.097 197.096 80.6483 198.668 85.8322 199.342C90.3425 199.913 99.3633 200.158 105.976 199.893C114.425 199.546 118.874 198.893 125.813 196.994C143.385 192.155 158.202 183.641 170.713 171.166C183.489 158.446 192.081 143.602 196.939 125.859C199.286 117.305 200 111.261 200 100.011C200 89.394 199.408 83.9834 197.306 75.6122C190.224 47.1095 170.305 22.6495 143.773 9.84775C135.834 6.02969 128.099 3.4571 118.874 1.61953C112.18 0.271982 100.629 -0.340541 91.6283 0.190312ZM109.915 21.0977C115.956 31.3473 119.323 38.6363 123.344 50.0905C125.752 56.9915 126.487 59.5641 126.099 59.8092C125.752 60.0133 114.201 60.0337 90.8732 59.85L73.7092 59.7275L75.3419 54.909C80.1585 40.7189 85.2403 29.9589 92.1589 19.301L93.8733 16.708L100.629 16.7488L107.404 16.8101L109.915 21.0977ZM70.403 22.629C70.403 22.8332 69.954 23.8745 69.4029 24.9362C65.566 32.2252 59.4025 48.3346 56.933 57.4816L56.2596 59.9929H45.1979C33.6464 59.9929 27.34 59.8296 27.34 59.5641C27.34 59.3396 29.3197 56.0932 30.8504 53.8064C38.8507 41.8622 51.6063 30.7143 63.8517 24.9566C66.9334 23.5274 69.9336 22.2411 70.2601 22.2207C70.3417 22.2207 70.403 22.4045 70.403 22.629ZM132.589 23.2212C143.63 28.0805 154.1 35.5941 161.998 44.3328C165.284 47.9671 166.223 49.1717 169.591 54.2352C172.57 58.7066 173.019 59.4825 172.754 59.7479C172.693 59.8296 166.182 59.9112 158.284 59.9521L143.957 60.0337L142.875 56.0115C140.242 46.2928 136.875 37.0437 132.303 27.1209C130.12 22.3636 130.14 22.4249 130.507 22.4249C130.671 22.4249 131.61 22.772 132.589 23.2212ZM52.8513 76.9802C52.8513 77.021 52.6268 79.512 52.341 82.5541C51.4634 92.0074 51.3206 96.2134 51.6063 105.401C51.7288 109.913 51.9328 114.732 52.0349 116.141C52.1573 117.55 52.3002 119.673 52.3614 120.857L52.5043 123.021L49.5654 123.144C47.9531 123.226 40.6467 123.287 33.3199 123.287H20.0132L19.8091 122.511C18.2172 116.467 17.9111 114.957 17.4213 110.832C16.9927 107.116 16.809 95.8663 17.1151 92.232C17.5437 87.3522 19.1968 78.6953 19.8908 77.6131C20.0948 77.3069 20.4418 77.1435 21.0541 77.0823C22.0133 77.0006 52.8513 76.8985 52.8513 76.9802ZM130.446 80.1041C131.12 86.2701 131.283 90.7211 131.161 100.991C131.018 112.997 130.589 119.244 129.671 122.164L129.303 123.287L104.302 123.266C80.6687 123.246 70.1785 123.124 69.8927 122.838C69.7295 122.674 69.2805 119.612 68.8315 115.528C68.5253 112.711 68.4641 110.444 68.4641 101.542C68.4845 90.3332 68.709 86.0251 69.5866 79.9816C69.8111 78.4707 69.9948 77.1844 69.9948 77.0823C69.9948 77.0006 83.5259 76.9598 100.037 76.9802L130.099 77.0414L130.446 80.1041ZM180.489 77.899C181.387 80.6349 182.571 87.1276 183.081 92.1503C183.469 95.7642 183.407 105.136 182.999 108.933C182.448 113.752 181.571 118.489 180.489 122.246L180.162 123.348L164.733 123.205C150.345 123.062 147.365 122.96 147.018 122.613C146.937 122.531 147.08 120.612 147.324 118.346C147.978 112.119 148.161 108.26 148.161 99.5006C148.161 89.5573 147.794 82.6562 147.018 77.7561L146.875 76.9394H163.529H180.162L180.489 77.899ZM56.2391 141.805C57.9331 149.605 62.3414 161.998 67.1784 172.595C67.811 173.942 68.5049 175.576 68.7498 176.25L69.1988 177.454L68.5662 177.311C67.26 177.066 59.8924 173.146 55.1983 170.227C49.096 166.429 39.8303 158.16 35.2995 152.463C32.3606 148.768 27.34 141.356 27.34 140.703C27.34 140.356 28.5238 140.315 43.0958 140.274L55.8922 140.233L56.2391 141.805ZM125.834 140.58C123.772 147.339 122.997 149.646 121.344 153.872C118.18 161.978 114.201 169.879 108.711 178.924L105.996 183.416L100.425 183.396C93.3835 183.355 92.7508 183.273 91.9344 182.416C90.2201 180.599 83.0361 167.082 80.3421 160.651C77.1583 153.015 73.1174 141.132 73.546 140.683C73.8929 140.335 77.3012 140.295 100.976 140.254C124.67 140.233 125.936 140.254 125.834 140.58ZM170.876 140.376C172.121 140.458 172.856 140.58 172.856 140.723C172.856 141.05 169.795 145.807 167.856 148.502C164.999 152.504 163.243 154.566 159.59 158.221C154.406 163.407 148.896 167.879 143.12 171.533C139.834 173.616 130.263 178.21 129.201 178.21C128.895 178.21 129.365 177.066 131.895 171.635C136.732 161.263 139.345 154.383 142.243 144.317C142.814 142.357 143.304 140.621 143.365 140.478C143.426 140.295 146.182 140.233 156.162 140.233C163.162 140.233 169.774 140.295 170.876 140.376Z" fill="#1081D1"/>
</svg>
