<svg width="34" height="25" viewBox="0 0 34 25" fill="none" xmlns="http://www.w3.org/2000/svg">
<path d="M20.2379 18.5345H13.7618C13.0375 18.5345 12.4836 18.1034 12.4836 17.5398V12.5C12.4836 11.9364 13.0375 11.5054 13.7618 11.5054H20.2379C20.9623 11.5054 21.5161 11.9364 21.5161 12.5V17.5398C21.5162 18.1034 20.9623 18.5345 20.2379 18.5345ZM15.0399 16.5451H18.9597V13.4947H15.0399V16.5451Z" fill="white"/>
<path d="M17.0003 25C16.276 25 15.7222 24.5689 15.7222 24.0053V17.5398C15.7222 16.9761 16.2761 16.5451 17.0003 16.5451C17.7246 16.5451 18.2785 16.9761 18.2785 17.5398V24.0053C18.2786 24.569 17.7247 25 17.0003 25Z" fill="white"/>
<path d="M17.0001 13.4947C16.2757 13.4947 15.7219 13.0637 15.7219 12.5V0.994664C15.7219 0.430981 16.2758 0 17.0001 0C17.7243 0 18.2782 0.431044 18.2782 0.994664V12.5C18.2783 13.0637 17.7244 13.4947 17.0001 13.4947Z" fill="white"/>
<path d="M4.51644 25C3.7921 25 3.23828 24.5689 3.23828 24.0053V12.1352C3.23828 11.5715 3.79218 11.1406 4.51644 11.1406C5.24069 11.1406 5.79459 11.5716 5.79459 12.1352V24.0053C5.79459 24.569 5.24069 25 4.51644 25Z" fill="white"/>
<path d="M4.51644 8.09015C3.7921 8.09015 3.23828 7.65911 3.23828 7.09549V0.994665C3.23828 0.430981 3.79218 0 4.51644 0C5.24069 0 5.79459 0.431045 5.79459 0.994665V7.09549C5.79459 7.65917 5.24069 8.09015 4.51644 8.09015Z" fill="white"/>
<path d="M29.4835 25C28.7591 25 28.2053 24.5689 28.2053 24.0053V12.1352C28.2053 11.5715 28.7592 11.1406 29.4835 11.1406C30.2077 11.1406 30.7616 11.5716 30.7616 12.1352V24.0053C30.7616 24.569 30.2077 25 29.4835 25Z" fill="white"/>
<path d="M29.4835 8.09015C28.7591 8.09015 28.2053 7.65911 28.2053 7.09549V0.994665C28.2053 0.430981 28.7592 0 29.4835 0C30.2077 0 30.7616 0.431045 30.7616 0.994665V7.09549C30.7616 7.65917 30.2077 8.09015 29.4835 8.09015Z" fill="white"/>
<path d="M7.75439 13.13H1.27815C0.553897 13.13 0 12.699 0 12.1353V7.0955C0 6.53181 0.553897 6.10083 1.27815 6.10083H7.75431C8.47865 6.10083 9.03246 6.53188 9.03246 7.0955V12.1353C9.03254 12.699 8.47865 13.13 7.75439 13.13ZM2.55639 11.1406H6.47615V8.09022H2.55639V11.1406Z" fill="white"/>
<path d="M32.7218 13.1311H26.2457C25.5213 13.1311 24.9675 12.7 24.9675 12.1364V7.09666C24.9675 6.53297 25.5214 6.10199 26.2457 6.10199H32.7218C33.4462 6.10199 34 6.53304 34 7.09666V12.1364C34 12.7 33.4461 13.1311 32.7218 13.1311ZM27.5238 11.1417H31.4436V8.09132H27.5238V11.1417Z" fill="white"/>
</svg>
