<svg width="546" height="531" viewBox="0 0 546 531" fill="none" xmlns="http://www.w3.org/2000/svg">
<path d="M401.474 217.621V0H172.64V120.129H0V530.692H172.64V530.98H546V217.613H401.474V217.621ZM113.808 513.29V414.565H74.8971V513.29H16.0634V137.535H172.64V513.29H113.808ZM529.939 513.574H326.526V338.032H256.937V513.574H188.694V120.129V17.4155H385.408V235.036H529.939V513.574ZM209.504 59.4791H242.965V140.153H209.504V59.4791ZM273.619 59.4791H307.068V140.153H273.619V59.4791ZM335.292 59.4791H368.755V140.153H335.292V59.4791ZM209.504 183.369H242.965V272.75H209.504V183.369ZM273.619 183.369H307.068V272.75H273.619V183.369ZM335.292 183.369H368.755V272.75H335.292V183.369ZM428.299 357.046H394.849V274.194H428.299V357.046ZM428.299 489.639H394.849V404.616H428.299V489.639ZM498.548 357.046H465.099V274.194H498.548V357.046ZM498.548 489.639H465.099V404.616H498.548V489.639ZM42.496 166.477H75.9461V249.323H42.496V166.477ZM42.496 296.888H75.9461V381.91H42.496V296.888ZM112.748 166.477H146.197V249.323H112.748V166.477ZM112.748 296.888H146.197V381.91H112.748V296.888Z" fill="#1081D1"/>
</svg>
