<svg width="546" height="531" viewBox="0 0 546 531" fill="none" xmlns="http://www.w3.org/2000/svg">
<path fill-rule="evenodd" clip-rule="evenodd" d="M157.883 1.54898C142.898 4.54801 114.416 14.9748 113.028 17.9708C112.827 18.4018 104.892 71.1345 95.3938 135.153C75.4013 269.886 62.0089 360.006 58.538 383.161C57.1982 392.105 56.101 400.082 56.101 400.891C56.101 401.698 61.4776 398.572 68.0488 393.941C156.852 331.393 231.303 355.779 266.937 459.079L269.457 466.383L270.205 266.844L270.953 67.3012L268.584 61.8428C250.596 20.4053 200.374 -6.94879 157.883 1.54898ZM349.236 2.2902C322.793 7.86647 299.828 25.3396 282.521 53.0566L274.46 65.9614L275.124 137.892C275.49 177.45 275.788 267.442 275.788 337.871C275.788 408.301 276.145 465.924 276.58 465.924C277.013 465.924 278.179 462.965 279.167 459.349C281.996 449.006 294.191 423.643 302.224 411.396C344.181 347.43 404.268 342.561 481.621 396.863C485.916 399.877 489.43 401.481 489.43 400.426C489.43 399.369 483.715 360.052 476.729 313.057C469.742 266.059 457.082 180.762 448.595 123.504C440.108 66.2467 432.971 18.9787 432.734 18.4701C428.267 8.8217 370.943 -2.28433 349.236 2.2902ZM67.641 69.9901C66.9201 72.5084 -0.283435 507.154 0.00089971 507.455C0.094242 507.554 57.4006 507.799 127.348 508L254.525 508.363L257.992 516.535C266.196 535.882 278.887 535.783 287.399 516.309L290.394 509.452H418.197H546L545.308 504.555C542.648 485.733 478.452 71.4974 478.064 70.6631C477.796 70.0832 474.629 69.9002 471.026 70.2568L464.476 70.905L468.431 100.287C470.607 116.449 475.297 151.215 478.855 177.549C482.412 203.886 490.795 266.075 497.481 315.752C504.168 365.427 511.436 419.295 513.635 435.453C520.663 487.128 521.394 484.92 502.36 469.509C414.252 398.174 330.141 402.126 281.096 479.902C273.228 492.379 272.362 492.323 264.118 478.847C217.152 402.076 130.469 398.317 43.1107 469.261C29.0921 480.646 26.8763 481.592 26.8763 476.202C26.8763 474.816 32.82 429.576 40.0864 375.671C60.7581 222.308 71.6791 141.269 76.6823 104.149C79.2183 85.3264 81.2948 69.4102 81.2948 68.7837C81.2948 66.5414 68.2987 67.6889 67.641 69.9901ZM85.8442 70.3623C85.6087 71.8571 82.8716 92.1805 79.7583 115.521C76.6464 138.865 72.1171 172.652 69.6931 190.609C67.2691 208.563 60.939 255.573 55.6257 295.076C50.3124 334.578 43.0302 388.632 39.4445 415.192C35.8573 441.755 32.922 464.417 32.922 465.555C32.922 466.693 36.1244 464.811 40.0376 461.371C114.589 395.848 196.759 391.144 249.979 449.35L262.56 463.111L258.341 452.294C222.968 361.597 151.109 343.891 66.877 405.125C52.5885 415.511 50.0539 416.398 50.0539 411.008C50.0539 409.674 61.1142 334.075 74.6331 243.01C88.1519 151.944 99.5196 75.2314 99.8944 72.5395C100.696 66.7957 86.7403 64.634 85.8442 70.3623ZM447.646 85.5962C455.421 136.353 493.906 396.72 494.775 404.436C496.246 417.499 496.082 417.524 480.602 406.399C398.024 347.051 333.081 358.734 293.433 440.071C283.757 459.923 281.718 466.839 288.036 458.382C338.098 391.367 431.223 393.926 508.83 464.445C513.701 468.87 513.897 472.164 505.59 410.425C501.724 381.697 491.57 306.284 483.026 242.842C474.481 179.4 465.759 114.517 463.643 98.6561L459.798 69.8195H452.513H445.228L447.646 85.5962Z" fill="#1081D1"/>
</svg>
