<svg width="546" height="530" viewBox="0 0 546 530" fill="none" xmlns="http://www.w3.org/2000/svg">
<path d="M125.086 1.96691C119.643 4.34777 115.588 9.31652 113.987 15.631C113.133 18.7364 112.92 29.295 113.133 47.2032C113.453 70.0802 113.774 74.5313 115.268 77.2228C118.256 82.6056 124.019 86.6427 130.422 88.0919L136.398 89.3341V99.4786V109.52L123.912 109.934C113.667 110.244 110.465 110.762 107.05 112.522C101.714 115.316 95.6312 121.424 92.7497 127.014C91.4691 129.395 70.8721 212.311 45.1525 318.518C6.94674 475.654 -0.310225 506.605 0.00993566 511.574C0.543536 519.131 4.27874 524.824 10.7887 527.826L15.4844 530L126.58 529.793L237.569 529.482L241.731 526.273C243.972 524.617 246.854 521.098 248.134 518.613L250.589 514.059V455.779V397.5H273H295.411V455.779V514.059L297.866 518.613C299.146 521.098 302.028 524.617 304.269 526.273L308.431 529.482L419.42 529.793L530.516 530L535.211 527.826C541.721 524.824 545.456 519.131 545.99 511.574C546.31 506.605 539.053 475.654 500.847 318.518C475.128 212.311 454.531 129.395 453.25 127.014C450.369 121.424 444.286 115.316 438.95 112.522C435.535 110.762 432.333 110.244 422.195 109.934L409.602 109.52V99.4786V89.3341L415.578 88.0919C423.582 86.3321 429.238 81.3634 431.479 74.2208C433.4 67.8028 433.827 21.6349 431.906 15.0099C430.305 9.213 426.143 4.24425 420.914 1.96691C416.859 0.207146 413.017 0.000114441 363.926 0.000114441C305.87 0.000114441 307.044 -0.103401 301.067 6.5216C295.625 12.5255 295.198 15.3204 295.625 46.0646C295.945 71.2188 296.158 74.4278 297.973 78.0509C300.427 82.7091 307.577 87.4708 313.66 88.506L317.822 89.2306V99.3751V109.52L313.66 110.244C307.577 111.279 300.427 116.041 297.973 120.699C296.158 124.426 295.945 127.635 295.625 161.691L295.304 198.75H273H250.695L250.375 161.691C250.055 127.635 249.842 124.426 248.027 120.699C245.573 116.041 238.423 111.279 232.34 110.244L228.178 109.52V99.3751V89.2306L232.233 88.506C239.383 87.2638 245.146 83.1231 248.027 77.3263C250.482 72.047 250.589 71.3224 250.589 44.2013C250.589 21.5314 250.269 15.838 248.988 12.629C246.854 7.76378 243.652 4.45129 238.636 1.96691C234.901 0.10363 231.699 0.000114441 182.074 0.000114441C132.983 0.000114441 129.141 0.207146 125.086 1.96691ZM227.11 44.5118V66.2501H181.754H136.398V44.5118V22.7735H181.754H227.11V44.5118ZM409.602 44.5118V66.2501H364.246H318.89V44.5118V22.7735H364.246H409.602V44.5118ZM204.699 99.3751V109.727H182.288H159.877V99.3751V89.0235H182.288H204.699V99.3751ZM386.123 99.3751V109.727H363.712H341.301V99.3751V89.0235H363.712H386.123V99.3751ZM204.699 177.012V198.75H201.284C192.853 198.854 184.742 205.272 182.395 213.76C180.901 219.143 180.794 267.277 182.395 272.557C183.569 277.008 188.691 283.012 192.853 285.082C194.347 285.91 197.656 286.842 200.217 287.256L204.699 287.981V353.609V419.238H134.797C88.8011 419.238 64.8958 418.928 64.8958 418.203C64.8958 417.582 80.05 358.268 98.6193 286.221L132.343 155.274H168.521H204.699V177.012ZM447.381 286.221C465.95 358.268 481.104 417.582 481.104 418.203C481.104 418.928 457.199 419.238 411.203 419.238H341.301V353.713V288.084L347.277 286.842C355.281 285.082 360.937 280.113 363.178 272.971C365.099 266.553 365.526 220.385 363.605 213.76C361.258 205.272 353.147 198.854 344.823 198.75H341.301V177.012V155.274H377.479H413.657L447.381 286.221ZM341.301 243.262V265H273H204.699V243.262V221.524H273H341.301V243.262ZM295.411 320.381V352.988H273H250.589V320.381V287.773H273H295.411V320.381ZM204.699 463.75V485.488H127.861C64.5756 485.488 51.0222 485.281 51.0222 484.143C51.0222 482.9 57.6388 450.086 59.0262 444.289L59.5598 442.012H132.129H204.699V463.75ZM486.974 444.289C488.361 450.086 494.978 482.9 494.978 484.143C494.978 485.281 481.424 485.488 418.139 485.488H341.301V463.75V442.012H413.871H486.44L486.974 444.289Z" fill="#083991"/>
</svg>
