<svg width="546" height="530" viewBox="0 0 546 530" fill="none" xmlns="http://www.w3.org/2000/svg">
<path d="M518.7 27.4139H473.2V9.13795C473.2 4.10294 469.114 0 464.1 0H300.3C295.286 0 291.2 4.10294 291.2 9.13795V63.9657C291.2 69.0007 295.286 73.1036 300.3 73.1036H464.1C469.114 73.1036 473.2 69.0007 473.2 63.9657V45.6898H518.7C523.714 45.6898 527.8 49.7927 527.8 54.8277V105.004C527.8 109.061 525.088 112.68 521.193 113.795L420.192 142.771C408.544 146.116 400.4 156.963 400.4 169.134V219.311H391.3V292.414H427.7V219.311H418.6V169.134C418.6 165.077 421.312 161.458 425.206 160.344L526.207 131.367C537.855 128.023 546 117.176 546 105.004V54.8277C546 39.7135 533.751 27.4139 518.7 27.4139V27.4139Z" fill="#083991"/>
<path d="M332.933 402.067L241.933 310.688H194.868L285.868 402.067H332.933Z" fill="#1081D1"/>
<path d="M9.1 73.1036H16.0524C19.5195 73.1036 22.6408 71.1664 24.1878 68.0503L30.7762 54.8277H72.8V82.2416C72.8 87.2766 76.8859 91.3795 81.9 91.3795H136.5C141.514 91.3795 145.6 87.2766 145.6 82.2416V65.7019C145.6 49.6282 158.622 36.5518 174.629 36.5518C181.554 36.5518 188.27 39.0465 193.521 43.5698L236.582 80.6333C235.726 36.0218 199.326 0 154.7 0H74.9476C71.4805 0 68.3592 1.93725 66.8122 5.05329L60.2238 18.2759H30.7762L24.1878 5.05329C22.6408 1.93725 19.5195 0 16.0524 0H9.1C4.0859 0 0 4.10294 0 9.13795V63.9657C0 69.0007 4.0859 73.1036 9.1 73.1036V73.1036Z" fill="#1081D1"/>
<path d="M91 109.657H127.4V292.416H91V109.657Z" fill="#1081D1"/>
<path d="M527.799 389.146V310.688H449.667L527.799 389.146Z" fill="#083991"/>
<path d="M12.8677 310.688L103.868 402.067H150.933L59.9329 310.688H12.8677Z" fill="#1081D1"/>
<path d="M260.132 402.067L169.132 310.688H85.6665L176.666 402.067H260.132Z" fill="#083991"/>
<path d="M36.3994 420.345H72.7994V530H36.3994V420.345Z" fill="#1081D1"/>
<path d="M267.667 310.688L358.667 402.067H442.132L351.132 310.688H267.667Z" fill="#083991"/>
<path d="M455 420.345H491.4V530H455V420.345Z" fill="#1081D1"/>
<path d="M376.868 310.688L467.868 402.067H514.933L423.933 310.688H376.868Z" fill="#1081D1"/>
<path d="M0 402.067H78.1326L0 323.608V402.067Z" fill="#083991"/>
<path d="M91 475.181H436.8V493.457H91V475.181Z" fill="#1081D1"/>
</svg>
