<svg width="546" height="532" viewBox="0 0 546 532" fill="none" xmlns="http://www.w3.org/2000/svg">
<path d="M260.387 0.728699C214.618 5.09929 174.943 39.9391 161.797 87.3912C159.407 96.0075 159.049 100.128 159.049 117.985C159.049 133.719 159.527 140.463 161.2 146.457C172.433 189.163 200.516 219.633 240.43 232.37C250.11 235.492 252.859 235.866 270.784 235.866C292.295 235.991 297.433 234.992 314.642 227.874C348.461 213.764 375.349 179.673 382.639 141.836C385.388 127.476 384.432 100.128 380.846 86.7668C377.022 73.1556 368.777 56.4225 359.814 44.6843C336.272 13.4659 299.226 -2.89264 260.387 0.728699Z" fill="#1081D1"/>
<path d="M254.054 256.721C191.673 262.091 133.475 292.809 93.322 341.635C84.4788 352.499 71.214 371.355 71.214 373.353C71.214 373.728 80.5352 373.978 91.888 373.978C111.008 373.978 112.921 374.227 118.537 376.974C129.053 382.094 136.941 394.956 136.941 407.069C136.941 410.69 139.45 413.313 162.992 435.041C177.213 448.277 189.402 459.766 190 460.64C190.717 461.639 190 464.761 187.849 469.256C186.176 473.127 184.742 476.874 184.742 477.498C184.742 478.497 176.735 478.872 160.363 478.872H135.865L136.582 485.365C137.419 494.731 133.714 504.471 126.663 511.339C117.103 520.579 116.864 520.579 75.9941 521.329L39.5457 521.953L43.8478 525.45C46.3573 527.323 50.0619 529.446 52.213 530.07C54.7225 530.819 138.136 531.319 273.772 531.194C453.146 531.194 491.984 530.819 495.45 529.446C499.154 527.947 496.047 527.697 469.04 527.697C432.95 527.572 429.006 526.823 420.043 517.957C410.722 508.841 407.137 495.105 411.081 483.617L412.754 478.872H385.985H359.216L356.229 471.879C354.556 468.008 353.241 464.386 353.241 463.887C353.241 463.387 365.908 451.274 381.324 436.914C400.803 419.057 409.647 409.941 410.125 407.818C411.439 401.2 415.98 392.334 420.043 388.713C428.408 380.97 431.635 380.221 456.372 380.221C468.681 380.221 478.719 379.722 478.719 379.222C478.719 377.599 464.857 356.87 457.448 347.13C423.987 303.923 373.557 272.205 320.736 260.967C306.515 257.97 280.225 255.222 270.306 255.472C267.557 255.597 260.268 256.097 254.054 256.721ZM298.867 310.417C330.177 314.538 367.103 331.021 390.168 351.25L394.231 354.747L355.751 390.461L317.271 426.05L308.069 421.929C284.885 411.565 258.714 411.44 235.77 421.43L227.643 424.926L189.88 389.837L152.118 354.747L156.181 351.126C169.326 339.512 194.78 325.027 213.781 318.409C240.072 309.293 269.35 306.546 298.867 310.417Z" fill="#083991"/>
<path d="M47.6717 315.412C38.4699 320.157 37.7529 322.654 37.7529 350.127V373.978H43.6086H49.4642L55.2004 364.237C58.427 358.993 64.9996 349.128 69.7797 342.384L78.623 330.147L75.7549 324.278C70.8553 313.788 58.3074 309.917 47.6717 315.412Z" fill="#1081D1"/>
<path d="M478.72 321.78C475.733 323.403 472.386 326.4 471.191 328.648L468.921 332.769L473.701 338.638C478.601 344.632 490.909 363.612 496.885 374.477C499.753 379.596 500.589 380.221 504.413 380.221H508.596V356.37C508.596 328.898 507.879 326.275 498.558 321.655C491.985 318.283 485.293 318.283 478.72 321.78Z" fill="#1081D1"/>
<path d="M17.3187 391.585C5.00988 399.077 -2.39931 429.047 0.707773 458.642C2.97833 480.745 6.92193 492.483 14.4506 500.1L18.7527 504.471L64.0444 504.846C103.6 505.095 109.934 504.97 113.041 503.222C124.274 497.103 124.154 478.247 112.802 471.754C109.336 469.756 105.273 469.506 81.3723 469.256C58.0692 468.882 53.8866 468.632 53.5281 467.009C53.1696 465.385 56.7547 465.136 80.1773 465.136C109.336 465.136 112.324 464.636 117.701 458.392C119.972 455.895 120.808 453.397 121.167 447.903C121.645 441.41 121.286 440.286 118.418 436.664C112.443 429.172 111.129 428.922 80.7748 428.922C57.1132 428.922 53.2891 428.672 53.2891 427.049C53.2891 425.426 57.1132 425.176 80.1773 425.176C109.934 425.176 112.682 424.676 118.179 417.808C122.72 412.064 122.84 402.074 118.299 396.455C112.204 388.963 112.563 388.963 65.0004 388.963C23.1743 388.963 21.5013 389.087 17.3187 391.585Z" fill="#1081D1"/>
<path d="M433.787 397.578C427.334 401.699 424.944 406.07 424.944 413.437C424.944 418.682 425.541 420.805 428.17 424.052C433.667 430.92 436.416 431.419 466.172 431.419C489.236 431.419 493.06 431.669 493.06 433.292C493.06 434.916 489.236 435.165 465.575 435.165C435.34 435.165 433.906 435.415 428.051 442.658C423.51 448.277 423.629 458.267 428.17 464.011C433.787 470.879 436.416 471.379 466.172 471.379C489.595 471.379 493.18 471.629 492.821 473.252C492.463 474.875 488.28 475.125 464.977 475.5C441.077 475.749 437.014 475.999 433.548 477.997C422.195 484.491 422.076 503.347 433.309 509.465C436.416 511.214 442.869 511.338 482.425 511.089L527.955 510.714L532.974 504.97C541.579 495.105 546 476.998 546 452.023C546 429.047 542.057 411.939 534.528 403.198C527.836 395.081 528.672 395.206 480.871 395.206C440.479 395.206 437.253 395.331 433.787 397.578Z" fill="#1081D1"/>
</svg>
