<svg width="546" height="531" viewBox="0 0 546 531" fill="none" xmlns="http://www.w3.org/2000/svg">
<path fill-rule="evenodd" clip-rule="evenodd" d="M393.904 6.60114C381.327 18.2826 380.462 21.6138 380.284 59.0279C380.216 73.3978 379.844 74.6352 374.999 76.6328C369.943 78.7195 370.24 75.6322 369.163 137.38C368.654 166.502 367.909 190.743 367.506 191.247C366.799 192.132 312.743 201.874 312.107 201.231C311.935 201.057 307.537 177.397 302.333 148.655C295.271 109.637 292.319 95.7351 290.681 93.7873C286.078 88.3125 200.367 64.3781 197.626 67.8036C196.261 69.5093 196.164 162.708 197.512 177.008C198.814 190.825 197.75 190.342 247.616 199.727L287.658 207.262L327.959 201.18C386.149 192.397 391.796 192.176 418.361 197.635C448.036 203.733 454.82 207.819 457.121 220.98C457.772 224.699 457.599 224.995 455.215 224.247C453.774 223.795 443.659 221.08 432.735 218.213L412.876 213.002L374.045 217.506C319.914 223.788 324.387 222.864 324.387 227.756C324.387 232.763 319.414 232.806 368.832 227.374L410.429 222.8L433.791 228.397L457.153 233.995L457.522 238.006C457.725 240.212 457.367 243.894 456.726 246.189C455.104 252.009 456.346 251.424 458.351 245.424C464.413 227.293 458.54 208.298 445.016 202.294C438.233 199.284 436.585 191.964 442.69 191.964C450.397 191.964 458.171 172.582 453.038 166.167C446.276 157.716 419.641 157.028 415.068 165.19C410.863 172.693 416.412 190.682 423.475 192.448C425.388 192.926 426.953 194.199 426.953 195.276C426.953 196.987 398.215 191.754 396.324 189.698C396.089 189.441 396.544 164.576 397.333 134.44C398.947 72.9135 399.171 75.9011 392.863 74.6405L388.206 73.7093L388.212 54.1424C388.22 30.4857 389.176 25.5236 394.923 19.3313C399.636 14.2535 403.021 7.25634 403.021 2.59693C403.021 -1.49807 402.265 -1.16513 393.904 6.60114ZM156.94 39.6745L117.701 49.5577L95.4852 61.3709C71.3209 74.2203 70.3978 75.0767 72.0217 83.1474C73.0289 88.154 73.4876 88.6116 79.086 90.1784C86.7742 92.3309 91.5535 89.6033 85.0548 86.7706C80.2855 84.6929 79.4436 85.3125 97.9953 77.2578C113.697 70.4423 113.786 70.3764 116.147 64.3051L118.519 58.2035L130.567 54.6266C142.182 51.1815 167.648 45.1369 178.749 43.1909L184.113 42.2508L185.898 49.9245L187.681 57.5964L197.922 57.4807C209.071 57.3525 208.489 57.8279 209.937 47.6349C210.363 44.6348 211.304 41.8965 212.026 41.5493C214.068 40.5701 254.57 55.5115 274.243 64.5009C283.958 68.9396 293.574 73.2625 295.611 74.1082C300.282 76.0471 301.222 87.5789 297.01 91.268C294.568 93.4045 294.962 97.9571 297.588 97.9571C301.459 97.9571 305.748 76.8732 302.653 73.0613C297.734 67.0042 246.684 43.7642 220.111 35.4834C198.72 28.8192 200.511 28.7017 156.94 39.6745ZM159.71 67.3657C138.3 74.2417 136.496 75.0073 135.348 77.71C133.817 81.3172 119.083 181.894 119.482 186.016C119.678 188.047 121.661 191.394 124.158 193.914L128.495 198.285L151.989 194.984C178.204 191.3 179.942 190.677 182.456 184.054C184.529 178.595 183.771 67.5081 181.638 64.1288C179.989 61.5151 176.177 62.0778 159.71 67.3657ZM110.706 86.0567C93.1917 93.0502 94.8371 89.5392 83.4251 144.248C78.0318 170.1 73.3152 192.47 72.9434 193.956C72.0787 197.416 107.132 196.221 110.011 192.694C111.537 190.823 126.059 93.3137 126.081 84.7819C126.094 79.9249 126.064 79.9266 110.706 86.0567ZM241.006 202.91C238.021 203.872 237.652 206.713 236.954 234.039C236.038 269.995 228.122 266.536 294.946 259.375C325.868 256.06 352.594 253.318 354.338 253.279C357.271 253.217 359.718 249.891 358.214 248.011C357.859 247.569 332.794 249.839 302.514 253.058C272.233 256.275 246.562 258.909 245.466 258.909C243.816 258.909 243.473 257.591 243.473 251.258V243.608L248.886 242.767C251.864 242.304 257.633 241.544 261.707 241.076C273.787 239.689 274.243 239.456 274.243 234.641C274.243 230.965 273.886 230.459 271.679 231.023C270.269 231.385 265.781 232.054 261.707 232.514C257.633 232.973 252.12 233.724 249.456 234.184L244.613 235.019V227.801C244.613 213.563 245.459 212.726 262.351 210.271C276.156 208.266 275.465 207.344 258.288 204.86C251.707 203.909 245.553 202.942 244.613 202.714C243.673 202.485 242.05 202.574 241.006 202.91ZM160.024 205.561C136.916 209.069 137.21 207.636 150.727 251.075C155.358 265.959 160.3 281.022 161.709 284.547L164.269 290.956L172.078 291.38C177.718 291.688 180.645 291.184 182.62 289.568L185.352 287.33L185.269 254.96C185.126 199.218 186.326 201.568 160.024 205.561ZM61.1326 207.653C44.8088 211.118 39.4796 214.341 39.4796 220.747C39.4796 222.205 35.3741 228.842 30.3569 235.501C-11.1583 290.586 -9.78223 434.72 32.5806 468.519L37.6463 472.561L66.1997 472.515C109.316 472.443 114.32 470.976 123.205 455.804C127.389 448.657 133.341 431.704 135.669 420.302L137.067 413.451L143.545 413.502C147.109 413.529 159.484 413.689 171.047 413.858L192.07 414.163L192.415 421.641C192.75 428.915 192.859 429.131 196.425 429.562C199.664 429.952 200.176 430.614 200.827 435.259C209.167 494.761 226.018 520.727 262.11 529.699C269.472 531.527 325.524 531.353 336.163 529.467C363.432 524.633 390.34 483.477 390.512 446.339L390.539 440.513L393.168 448.5C403.656 480.366 425.774 494.745 463.991 494.542C508.044 494.307 530.946 476.745 541.516 435.097C559.401 364.617 521.954 296.725 461.75 290.481L452.595 289.532L452.247 282.766C451.93 276.576 451.653 276.001 448.992 276.001C447.138 276.001 446.279 275.355 446.62 274.22C448.854 266.814 450.871 255.497 450.106 254.657C446.868 251.1 406.815 241.571 398.964 242.491L390.747 243.453L386.427 262.932C373.077 323.118 375.28 317.951 367.866 306.482C340.605 264.309 281.256 250.07 244.503 276.886C230.243 287.289 218.245 306.094 212.658 326.79L210.411 335.111L188.858 334.399C177.003 334.007 167.075 333.366 166.795 332.975C166.515 332.583 161.31 316.249 155.229 296.675C142.415 255.439 144.639 260.304 137.884 258.727C128.386 256.509 123.207 252.373 117.571 242.502C97.1349 206.706 89.0634 201.723 61.1326 207.653ZM204.562 206.943C199.978 210.055 199.546 214.243 200.167 249.65C200.891 290.932 201.746 293.093 217.356 293.093C231.771 293.093 234.611 285.27 235.252 243.819L235.694 215.199L232.912 211.157C228.907 205.341 210.871 202.659 204.562 206.943ZM56.1567 268.763C63.8876 274.655 70.355 290.024 73.7468 310.568C76.0062 324.251 76.6443 338.672 74.9905 338.672C71.4077 338.672 70.2724 354.368 73.5574 358.474C76.0817 361.629 74.6115 376.617 70.1556 393.145C51.3831 462.797 13.5218 431.755 15.8765 348.643C17.4378 293.584 37.2289 254.336 56.1567 268.763ZM420.051 275.921C426.16 283.555 423.297 301.639 415.98 301.639C407.373 301.639 408.335 274.402 416.982 273.264C417.452 273.202 418.833 274.398 420.051 275.921ZM449.112 282.015C453.853 290.474 449.007 308.567 443.065 304.593C438.372 301.454 436.895 290.77 440.089 283.051C442.223 277.892 446.524 277.397 449.112 282.015ZM284.078 333.715C316.284 353.409 323.905 433.359 296.969 468.956C269.921 504.7 232.285 470.631 230.141 408.465C228.251 353.599 255.297 316.116 284.078 333.715ZM274.071 382.143C266.733 387.125 263.848 407.021 268.662 419.449C276.31 439.197 293.902 429.06 293.902 404.904C293.902 386.466 284.165 375.29 274.071 382.143ZM485.438 405.973C482.903 433.402 470.511 448.778 457.643 440.462C450.847 436.069 444.048 419.584 444.048 407.495V402.768L452.88 402.592C457.737 402.494 465.302 401.954 469.689 401.392C474.077 400.827 479.541 400.266 481.832 400.144L485.997 399.919L485.438 405.973Z" fill="#1081D1"/>
</svg>
