<svg width="546" height="531" viewBox="0 0 546 531" fill="none" xmlns="http://www.w3.org/2000/svg">
<path d="M214.498 270.412C214.498 267.651 216.737 265.412 219.498 265.412H277.755C280.516 265.412 282.755 267.651 282.755 270.412V317.323C282.755 320.084 280.516 322.323 277.755 322.323H219.498C216.737 322.323 214.498 320.084 214.498 317.323V270.412Z" fill="#1081D1"/>
<path d="M321.75 61.7392C321.748 58.9793 319.51 56.7432 316.75 56.7432H277.998C275.236 56.7432 272.998 58.9817 272.998 61.7432V94.0586C272.998 95.4526 273.58 96.7832 274.603 97.7296L313.409 133.614C316.612 136.576 321.807 134.302 321.804 129.939L321.75 61.7392Z" fill="#1081D1"/>
<path d="M38.9978 199.019H351.756C353.219 199.019 353.921 197.223 352.844 196.231L325.265 170.724C325.108 170.604 324.981 170.449 324.825 170.319L256.575 107.207C256.488 107.113 256.391 107.035 256.305 106.951C228.113 80.9258 202.218 57.0129 188.634 44.4434C186.718 42.67 183.769 42.6776 181.852 44.4501L17.6663 196.231C16.5734 197.246 17.2913 199.074 18.7826 199.074H38.7579C38.8445 199.068 38.9112 199.019 38.9978 199.019Z" fill="#1081D1"/>
<path d="M341.243 327.324C341.243 324.563 343.482 322.324 346.243 322.324H492.242C495.003 322.324 497.242 324.563 497.242 327.324V336.292C497.242 339.054 495.003 341.292 492.242 341.292H346.243C343.482 341.292 341.243 339.054 341.243 336.292V327.324Z" fill="#083991"/>
<path d="M458.241 474.071H346.243C343.482 474.071 341.243 476.309 341.243 479.071V488.039C341.243 490.8 343.482 493.039 346.243 493.039H492.242C495.003 493.039 497.242 490.8 497.242 488.039V365.256C497.242 362.494 495.003 360.256 492.242 360.256H346.243C343.482 360.256 341.243 362.494 341.243 365.256V374.224C341.243 376.985 343.482 379.224 346.243 379.224H458.241C463.63 379.224 467.989 383.471 467.989 388.71C467.989 393.945 463.63 398.192 458.241 398.192H346.243C343.482 398.192 341.243 400.431 341.243 403.192V412.163C341.243 414.925 343.482 417.163 346.243 417.163H458.241C463.63 417.163 467.989 421.41 467.989 426.649C467.989 431.888 463.63 436.131 458.241 436.131H346.243C343.482 436.131 341.243 438.37 341.243 441.131V450.103C341.243 452.864 343.482 455.103 346.243 455.103H458.241C463.63 455.103 467.989 459.35 467.989 464.585C467.989 469.824 463.63 474.071 458.241 474.071Z" fill="#083991"/>
<path d="M48.7466 270.412C48.7466 267.651 50.9852 265.412 53.7466 265.412H121.758C124.519 265.412 126.758 267.651 126.758 270.412V317.323C126.758 320.084 124.519 322.323 121.758 322.323H53.7466C50.9852 322.323 48.7466 320.084 48.7466 317.323V270.412Z" fill="#1081D1"/>
<path d="M545.993 517.009C545.991 514.249 543.753 512.012 540.993 512.012H4.99999C2.23857 512.012 0 514.25 0 517.012V525.98C0 528.741 2.23858 530.98 5 530.98H540.997C543.76 530.98 545.999 528.74 545.997 525.977L545.993 517.009Z" fill="#1081D1"/>
<path d="M34.1257 493.044H141.373C154.796 492.96 165.66 482.394 165.75 469.333C165.75 457.422 156.662 447.36 144.522 445.82C144.415 445.82 144.339 445.742 144.229 445.726C143.992 445.706 143.759 445.671 143.529 445.622C143.215 445.509 142.908 445.38 142.609 445.237C142.349 445.113 142.084 445 141.815 444.897C141.348 444.719 140.898 444.504 140.466 444.257C139.963 443.904 139.493 443.502 139.073 443.061C138.61 442.662 138.19 442.225 137.814 441.751C137.487 441.236 137.211 440.694 136.987 440.13C136.711 439.595 136.491 439.038 136.331 438.461C136.246 437.978 136.199 437.493 136.191 437.006C136.186 436.712 136.17 436.418 136.14 436.126C136.108 435.811 136.091 435.494 136.091 435.18C136.091 435.008 136.224 434.875 136.254 434.703C136.257 434.69 136.259 434.677 136.261 434.663C136.303 434.358 136.285 434.049 136.332 433.744C136.452 432.966 136.508 432.18 136.497 431.393C136.497 418.303 125.583 407.686 112.127 407.686C111.768 407.69 111.41 407.702 111.052 407.722C108.401 407.871 106.813 410.48 107.056 413.124C107.179 414.468 107.243 415.818 107.248 417.168C107.231 425.493 104.968 433.666 100.686 440.879C97.9967 445.418 92.0282 446.98 87.3627 444.361C82.6905 441.738 81.0875 435.935 83.7835 431.393C86.3796 427.079 87.7492 422.167 87.7492 417.168C87.7826 413.609 87.0661 410.085 85.6331 406.811C80.541 394.06 66.8343 386.653 53.0144 389.194C39.2044 391.729 29.2102 403.491 29.2502 417.168C29.2235 422.501 30.7731 427.727 33.7058 432.23C33.826 432.477 33.9342 432.731 34.0297 432.99C34.1714 433.373 34.3389 433.748 34.5277 434.111C34.5887 434.228 34.6468 434.347 34.7018 434.467C34.8241 434.733 34.8755 435.026 34.8755 435.319C34.9941 436.41 35.023 437.505 34.9598 438.594C34.9442 438.864 34.9028 439.132 34.826 439.39C34.6935 439.837 34.5252 440.273 34.3289 440.698C34.1323 441.275 33.879 441.826 33.5725 442.351C33.2292 442.808 32.8426 443.239 32.4161 443.628C31.9762 444.134 31.4796 444.591 30.9398 444.996C30.8098 445.084 30.7431 445.223 30.6065 445.311C29.793 445.798 28.9112 446.168 27.9835 446.411C27.9616 446.417 27.939 446.419 27.9163 446.419C27.8948 446.419 27.8732 446.422 27.8523 446.427C23.7257 447.448 19.9682 449.552 16.9832 452.508C12.3276 456.933 9.71494 463.002 9.7516 469.333C9.7516 482.427 20.6623 493.044 34.1257 493.044Z" fill="#1081D1"/>
<path d="M316.743 493.043C319.505 493.043 321.743 490.804 321.743 488.043V222.989C321.743 220.228 319.505 217.989 316.743 217.989H53.7466C50.9851 217.989 48.7466 220.228 48.7466 222.989V241.443C48.7466 244.205 50.9852 246.443 53.7466 246.443H126.744C137.518 246.443 146.246 254.937 146.246 265.411V322.322C146.246 332.797 137.518 341.291 126.744 341.291H53.7466C50.9852 341.291 48.7466 343.529 48.7466 346.291V364.607C48.7466 367.759 51.6322 370.111 54.7749 369.879C56.0119 369.787 57.2526 369.741 58.4942 369.741C73.4575 369.709 87.5098 376.433 96.6127 387.807C97.9981 389.538 100.276 390.326 102.437 389.831C105.609 389.107 108.86 388.729 112.124 388.713C134.206 388.768 152.59 404.756 155.434 425.716C155.709 427.742 157.035 429.493 158.916 430.292C174.771 437.031 185.2 452.295 185.247 469.332C185.265 474.594 184.27 479.783 182.343 484.641C180.855 488.393 183.354 493.043 187.39 493.043H189.994C192.756 493.043 194.994 490.804 194.994 488.043V388.713C194.994 372.999 208.091 360.259 224.244 360.259H272.995C280.75 360.259 288.188 363.258 293.677 368.59C299.162 373.927 302.245 381.166 302.245 388.713V488.043C302.245 490.804 304.483 493.043 307.245 493.043H316.743ZM282.746 341.291H214.496C203.725 341.291 194.994 332.797 194.994 322.322V265.411C194.994 254.937 203.725 246.443 214.496 246.443H282.746C293.514 246.443 302.245 254.937 302.245 265.411V322.322C302.245 332.797 293.514 341.291 282.746 341.291Z" fill="#083991"/>
</svg>
