<svg width="546" height="530" viewBox="0 0 546 530" fill="none" xmlns="http://www.w3.org/2000/svg">
<path d="M172.669 2.85359C163.134 7.73765 156.666 12.6217 146.407 22.7191C137.207 31.7738 131.687 39.1273 131.687 42.365C131.687 44.8894 133.081 45.1089 148.358 45.6028C156.164 45.8223 162.744 46.2064 163.023 46.4808C163.469 46.9198 156.722 66.8402 74.0886 308.08C12.0858 489.174 -0.850075 527.588 0.042052 528.63C0.655389 529.399 2.27237 529.508 10.3573 529.508C17.2155 529.508 20.2264 529.289 20.8398 528.85C21.2858 528.466 24.5198 519.96 27.9768 510.027C31.378 500.039 34.5005 491.479 34.835 490.985C35.5041 489.997 50.8933 480.009 59.8146 474.741L64.6655 471.887H103.585C125.163 471.887 145.403 472.162 148.916 472.436C158.339 473.259 161.294 474.467 173.617 482.643C179.36 486.43 184.099 489.832 184.099 490.216C184.099 490.546 182.259 496.253 179.973 502.893C177.687 509.533 174.899 517.929 173.784 521.551C171.944 527.533 171.832 528.191 172.669 528.74C173.84 529.618 181.255 530.167 188.225 529.947L193.801 529.783L201.997 505.911C206.569 492.796 218.056 459.211 227.646 431.279C249.782 366.469 267.736 315.104 272.197 303.689L272.866 302.043L273.591 303.744C275.932 309.232 295.559 365.755 327.341 458.443L351.763 529.783L357.562 529.947C364.197 530.167 372.003 529.673 373.118 528.96C374.178 528.301 373.676 526.545 366.929 506.186C363.918 497.131 361.521 489.723 361.577 489.668C362.023 489.229 381.482 477.101 384.66 475.235L388.619 472.93L401.667 472.436C408.804 472.162 429.88 471.887 448.503 471.887H482.293L496.399 480.832L510.506 489.777L517.364 509.204C521.156 519.905 524.557 528.85 524.947 529.069C525.338 529.289 529.798 529.508 534.928 529.508C546.581 529.508 546.916 529.289 545.299 523.033C544.964 521.606 538.162 501.576 530.189 478.473C481.01 335.518 389.121 67.2792 382.319 46.7003L379.363 37.8103L390.961 26.0666C403.73 13.0607 408.246 7.29863 408.246 3.7865C408.246 1.97556 408.079 1.70118 406.741 1.37191C403.395 0.603635 340.556 -1.2388e-05 261.324 -1.2388e-05H178.244L172.669 2.85359ZM331.189 46.4259C333.921 46.5906 335.761 46.9747 335.761 47.3589C335.761 47.6881 333.753 54.0539 331.244 61.572L326.672 75.1266L272.866 75.0169L219.059 74.8522L217.163 69.3645C212.982 57.3465 209.748 46.9747 210.026 46.6455C211.03 45.6577 318.42 45.4382 331.189 46.4259ZM194.805 75.2364C194.024 76.0047 181.646 76.1693 178.969 75.5108L177.464 75.1266L178.3 72.2181C179.415 68.3768 185.828 49.1698 186.218 48.5113C186.385 48.2369 188.56 53.999 191.013 61.2976C194.582 71.834 195.362 74.6876 194.805 75.2364ZM363.194 59.5964C367.821 72.6572 368.379 74.6327 367.543 75.1266C365.703 76.2242 351.652 76.1144 350.481 74.962C350.035 74.5779 358.566 49.3344 359.179 49.3344C359.346 49.3344 361.186 53.9441 363.194 59.5964ZM212.536 123.693C217.219 137.686 220.899 149.375 220.676 149.595C220.119 150.144 165.532 150.528 158.004 150.034C152.484 149.65 152.261 149.595 152.596 148.497C152.763 147.839 156.61 136.26 161.071 122.705L169.267 98.175H186.608H203.949L212.536 123.693ZM314.294 111.455C311.729 118.809 307.659 130.443 305.205 137.412L300.745 150.034L273.2 150.198C251.51 150.308 245.489 150.144 245.042 149.65C244.541 148.991 227.033 99.3274 227.033 98.5591C227.033 98.3396 247.719 98.175 272.977 98.175H318.978L314.294 111.455ZM384.772 123.089C389.4 136.808 393.191 148.387 393.191 148.826C393.191 149.375 392.076 149.704 388.898 149.979C383.434 150.418 334.422 150.418 328.902 149.979L324.721 149.595L325.557 146.796C326.449 143.558 341.392 99.2176 341.727 98.5591C341.838 98.3396 349.7 98.175 359.179 98.175H376.408L384.772 123.089ZM229.542 173.466C229.653 173.85 233.779 185.594 238.63 199.533L247.496 224.941H186.775C153.432 224.941 126.111 224.776 126.111 224.502C126.111 223.679 143.005 174.728 143.507 174.18C144.455 173.137 150.644 172.972 189.842 172.863C220.955 172.808 229.375 172.972 229.542 173.466ZM290.541 173.137C291.489 173.356 292.269 173.85 292.269 174.289C292.269 175.826 278.441 216.051 276.49 220.221C272.308 229.002 271.137 227.191 260.599 196.13C252.514 172.259 252.849 173.521 254.466 173.192C256.529 172.808 288.589 172.753 290.541 173.137ZM391.797 173.302L402.391 173.631L410.867 198.6C415.55 212.319 419.398 223.898 419.398 224.227C419.398 224.776 406.908 224.941 358.9 224.941C325.613 224.941 298.403 224.721 298.403 224.502C298.403 224.282 301.525 215.283 305.261 204.636C309.053 193.935 313.123 182.356 314.238 178.954L316.357 172.808L348.752 172.863C366.595 172.917 385.999 173.082 391.797 173.302ZM255.804 249.965C257.811 254.41 259.93 262.038 259.93 264.672C259.93 268.019 258.647 272.684 253.964 287.007L249.726 300.013L209.246 300.397C161.294 300.891 101.745 300.507 100.908 299.683C100.574 299.354 102.971 291.562 108.212 276.086C117.803 247.934 117.803 247.989 119.81 247.934C128.787 247.44 163.859 247.056 204.618 247.001L254.41 246.892L255.804 249.965ZM422.018 247.77L427.706 248.099L429.88 254.19C436.236 271.806 445.269 298.97 444.879 299.354C444.656 299.574 441.924 299.958 438.746 300.177C432.11 300.671 350.704 300.671 318.197 300.177L295.949 299.848L291.266 285.58C287.084 272.903 286.526 270.708 286.303 266.099C286.025 261.324 286.136 260.446 287.697 255.946C288.645 253.203 289.76 250.129 290.262 249.032L291.099 247.056L353.715 247.276C388.173 247.386 418.896 247.605 422.018 247.77ZM235.173 341.39C223.576 374.81 223.631 374.645 222.349 374.975C220.788 375.414 180.475 375.359 122.431 374.92L74.3674 374.591L79.3856 360.268C82.1177 352.365 86.1323 340.841 88.3626 334.585L92.3772 323.171H166.926H241.474L235.173 341.39ZM455.64 329.591C460.045 341.884 470.137 372.066 470.137 373.054C470.137 373.767 469.58 374.206 468.353 374.481C467.349 374.7 434.006 374.975 394.307 375.139L322.1 375.414L317.974 363.121C314.405 352.475 305.373 326.848 304.257 324.104C303.867 323.226 307.659 323.171 378.583 323.171H453.298L455.64 329.591ZM190.344 397.749C203.726 397.913 214.822 398.243 215.045 398.462C215.435 398.846 212.759 406.968 204.06 432.211L197.927 449.937H123.267H48.663L57.417 424.474C65.4461 401.041 66.2825 398.901 67.5649 398.572C71.2449 397.529 145.57 397.035 190.344 397.749ZM472.814 398.188L479.56 398.517L487.98 423.541C492.608 437.315 496.511 448.894 496.622 449.223C496.845 449.772 481.679 449.937 422.185 449.937H347.526L338.883 424.254L330.241 398.627L332.861 398.297C336.486 397.858 464.506 397.694 472.814 398.188Z" fill="#083991"/>
</svg>
