<svg width="546" height="531" viewBox="0 0 546 531" fill="none" xmlns="http://www.w3.org/2000/svg">
<path d="M171.762 2.84802C135.741 10.646 115.266 43.2555 125.125 77.6373C130.812 97.4866 158.491 123.362 180.483 129.742C230.154 143.565 274.896 122.298 279.825 82.2452C283.616 48.5723 257.833 15.6083 219.537 4.97473C197.925 -1.05095 190.721 -1.4054 171.762 2.84802Z" fill="#1081D1"/>
<path d="M362.104 85.7898C355.659 88.2709 345.8 95.7144 340.113 101.74C305.609 140.375 340.871 193.898 401.159 194.252C426.184 194.252 442.867 187.872 456.138 173.339C480.784 145.692 468.65 103.512 430.733 87.562C412.534 79.7641 378.788 79.0552 362.104 85.7898Z" fill="#1081D1"/>
<path d="M73.9376 110.955C58.0126 125.488 61.0459 140.02 88.7251 183.263C102.375 204.176 116.404 223.671 120.196 226.861C123.988 230.051 142.188 241.393 160.767 252.381C186.929 267.623 195.65 271.167 199.821 267.977C203.613 265.141 208.163 265.85 217.642 270.458C230.154 276.838 230.533 276.838 243.046 267.623C254.421 259.47 256.696 259.116 263.142 263.724C273.379 270.458 277.929 270.104 283.617 261.597C287.788 255.217 285.892 253.09 261.625 238.558C247.217 229.696 235.083 221.189 235.083 219.417C235.083 217.645 228.638 212.328 221.054 208.075C213.471 203.467 209.3 199.213 211.575 198.505C217.263 196.732 217.642 163.059 212.333 149.945C209.3 142.501 206.267 140.729 197.925 141.792C188.067 142.856 187.688 143.919 185.792 164.832C183.896 186.808 183.896 186.808 175.933 180.782C171.383 177.592 158.113 159.869 146.358 142.147C134.225 124.07 121.333 107.765 117.542 105.638C104.271 98.9037 83.7959 101.385 73.9376 110.955Z" fill="#1081D1"/>
<path d="M18.9584 150.3C16.6834 155.262 15.1667 178.656 15.1667 202.404C15.1667 250.255 19.7167 263.015 35.2626 260.888C42.4667 259.825 43.6042 257.344 44.3626 240.33C45.8792 214.455 53.0834 152.426 55.7376 146.046C57.2542 142.147 53.4626 141.084 40.1917 141.084C24.6459 141.084 21.9917 142.147 18.9584 150.3Z" fill="#083991"/>
<path d="M322.292 207.72C300.679 219.063 294.234 230.051 292.717 260.534L291.2 287.472L303.713 284.991C332.529 279.32 351.867 279.32 371.204 283.927C383.338 287.117 395.092 288.181 399.642 286.409C422.771 278.256 465.238 279.32 490.642 288.535C497.467 291.016 497.846 289.599 495.95 263.724C494.054 234.659 488.746 224.38 468.65 210.556C459.171 203.821 451.967 203.112 396.988 202.049C342.767 201.34 334.046 201.695 322.292 207.72Z" fill="#1081D1"/>
<path d="M0 307.676V321.854H273H546V307.676V293.498H273H0V307.676Z" fill="#083991"/>
<path d="M92.8958 337.804C84.5542 345.248 83.4166 349.501 83.4166 371.477V396.289H45.5H7.58331V408.695V421.1H45.5H83.4166V476.04V530.98H127.021H170.625V444.494C170.625 355.527 168.35 338.868 155.458 332.488C151.667 330.361 138.017 328.943 125.125 328.943C105.787 328.943 100.479 330.361 92.8958 337.804Z" fill="#1081D1"/>
<path d="M191.858 336.387L182 343.476V437.405V530.98H223.708H265.417V438.823V346.311L255.938 337.804C243.425 325.753 207.404 325.044 191.858 336.387Z" fill="#1081D1"/>
<path d="M331.771 350.919C327.6 353.046 323.05 356.59 321.533 358.717C320.017 360.844 318.5 400.542 318.5 446.621V530.98H354.521H390.542V446.267V361.198L380.683 354.109C369.308 345.957 344.283 344.185 331.771 350.919Z" fill="#1081D1"/>
<path d="M417.842 350.21C413.292 351.982 407.604 357.654 405.708 362.616C403.433 367.933 401.917 407.631 401.917 451.583V530.98H439.833H477.75V446.267V361.198L467.892 354.109C457.275 346.311 433.767 344.539 417.842 350.21Z" fill="#1081D1"/>
</svg>
