<svg width="546" height="531" viewBox="0 0 546 531" fill="none" xmlns="http://www.w3.org/2000/svg">
<path fill-rule="evenodd" clip-rule="evenodd" d="M32.1824 1.03517C22.1046 4.83843 16.9509 12.5927 16.9509 23.9567C16.9509 30.9678 15.1052 27.7482 89.6281 150.741C175.294 292.125 171.392 286.688 185.629 284.562C198.221 282.681 205.004 275.07 205.004 262.821V256.693L195.511 240.477C147.372 158.241 59.2729 12.6592 54.2606 7.06365C48.8285 0.99823 39.2279 -1.62298 32.1824 1.03517ZM66.4388 240.495C36.6559 243.405 11.8434 271.822 2.60802 313.6C-5.04198 348.209 3.39163 371.509 37.8621 410.99C47.8364 422.414 80.387 451.876 81.6422 450.614C81.7444 450.512 82.7617 445.596 83.9035 439.692C102.588 343.028 219.372 322.151 264.915 407.334C277.076 430.082 279.837 464.776 271.514 490.266C267.93 501.237 267.666 500.451 275.14 501.02C283.878 501.685 383.582 501.162 384.96 500.443C385.958 499.923 385.823 499.112 383.705 492.878C379.624 480.877 378.544 473.47 378.48 457.066C378.358 426.259 385.132 408.024 405.39 384.62C411.614 377.428 411.503 377.7 408.586 376.821C407.366 376.452 388.092 370.748 365.753 364.144C343.416 357.54 318.689 350.226 310.805 347.892C302.921 345.557 288.024 341.166 277.7 338.132C242.204 327.704 185.145 310.465 173.922 306.778C154.214 300.305 150.979 297.18 132.65 266.906C120.066 246.123 120.726 246.891 113.861 245.065C100.403 241.485 78.1999 239.345 66.4388 240.495ZM287.719 242.653C267.981 245.047 250.329 256.036 237.949 273.632C232.773 280.989 226.398 293.216 226.269 296.031L226.164 298.327L232.99 300.412C251.042 305.926 297.543 319.515 350.737 334.821C401.844 349.529 411.762 352.193 412.498 351.416C415.794 347.938 412.561 312.919 407.811 300.614C393.826 264.393 336.516 236.733 287.719 242.653ZM167.12 382.783C112.274 394.96 91.1141 465.101 129.368 507.923C156.354 538.127 202.318 538.698 230.02 509.17C269.251 467.353 251.435 399.131 197.274 383.779C190.517 381.864 173.756 381.31 167.12 382.783ZM462.34 382.79C437.062 387.934 413.206 411.145 407.115 436.525C392.206 498.653 451.724 550.969 506.025 523.467C534.628 508.982 550.221 477.012 545.003 443.551C538.78 403.651 499.98 375.131 462.34 382.79ZM485.788 427.769C514.824 439.418 507.553 484.793 476.333 486.774C451.056 488.378 436.825 455.686 454.182 435.89C462.28 426.657 474.92 423.407 485.788 427.769ZM193.131 429.12C210.892 438.365 214.972 463.126 201.132 477.687C191.093 488.251 174.413 489.815 163.597 481.207C145.427 466.747 149.317 435.908 170.371 427.496C175.404 425.485 187.852 426.374 193.131 429.12Z" fill="#1081D1"/>
</svg>
