<svg width="546" height="531" viewBox="0 0 546 531" fill="none" xmlns="http://www.w3.org/2000/svg">
<path fill-rule="evenodd" clip-rule="evenodd" d="M256.748 0.521408C250.936 1.0336 243.011 2.266 239.136 3.26132C235.259 4.25663 230.391 5.31681 228.316 5.61428C226.24 5.91176 224.54 6.59618 224.54 7.13298C224.54 7.66977 222.955 8.10816 221.018 8.10816C219.08 8.10816 217.495 8.60022 217.495 9.19965C217.495 9.79907 216.136 10.2911 214.475 10.2911C212.814 10.2911 211.456 10.6624 211.456 11.1142C211.456 11.5683 209.983 12.4831 208.186 13.1474C200.454 16.0013 194.826 18.531 194.514 19.2915C194.328 19.741 193.309 20.1101 192.249 20.1101C191.188 20.1101 190.319 20.6021 190.319 21.2016C190.319 21.801 189.527 22.3288 188.557 22.3713C187.59 22.4161 185.438 23.3152 183.777 24.3687L180.758 26.2877L180.49 56.1136C180.312 75.8901 179.846 86.4293 179.107 87.3933C178.228 88.5429 171.917 88.8471 148.929 88.8471H119.865V309.122C119.865 508.979 120.011 529.46 121.456 530.062C122.333 530.426 190.46 530.724 272.852 530.724C355.245 530.724 423.372 530.426 424.249 530.062C425.693 529.46 425.84 508.979 425.84 309.122V88.8471H396.776C373.788 88.8471 367.477 88.5429 366.598 87.3933C365.859 86.427 365.393 75.8655 365.215 56.0241C364.947 26.1781 364.943 26.1088 362.684 25.033C361.437 24.4425 360.418 23.5836 360.418 23.1251C360.418 22.6666 359.285 22.2931 357.903 22.2931C356.518 22.2931 355.386 21.801 355.386 21.2016C355.386 20.6021 354.48 20.1101 353.372 20.1101C352.266 20.1101 351.36 19.7388 351.36 19.287C351.36 18.8329 349.887 17.9181 348.088 17.2539C340.358 14.3999 334.73 11.8702 334.416 11.1098C334.232 10.658 332.788 10.2911 331.205 10.2911C329.623 10.2911 328.049 9.79907 327.706 9.19965C327.366 8.60022 325.752 8.10816 324.124 8.10816C322.496 8.10816 321.165 7.61833 321.165 7.01667C321.165 6.41724 319.799 5.92742 318.132 5.92742C316.463 5.92742 314.311 5.48008 313.351 4.9321C307.034 1.34003 275.423 -1.12477 256.748 0.521408ZM279.899 35.3842C279.899 36.0351 283.757 36.4757 289.46 36.4757C295.163 36.4757 299.022 36.9163 299.022 37.5672C299.022 38.1666 300.656 38.6587 302.653 38.6587C306.037 38.6587 324.885 44.8341 329.972 47.6098C333.529 49.5512 333.529 87.3754 329.972 88.3103C328.725 88.6368 302.117 88.7688 270.839 88.6033L213.971 88.3013L213.699 68.5874C213.427 49.0122 213.441 48.8646 215.711 47.7351C222.062 44.5769 225.526 43.217 230.579 41.8929C233.624 41.0944 236.546 40.041 237.072 39.5511C237.596 39.0591 239.975 38.6587 242.356 38.6587C244.735 38.6587 246.683 38.1666 246.683 37.5672C246.683 36.9163 250.542 36.4757 256.245 36.4757C261.948 36.4757 265.806 36.0351 265.806 35.3842C265.806 34.7624 268.827 34.295 272.852 34.295C276.878 34.295 279.899 34.7624 279.899 35.3842ZM41.3574 89.9162C41.3574 90.5268 40.0245 91.0278 38.3966 91.0278C36.7686 91.0278 35.1571 91.5199 34.8146 92.1193C34.4721 92.721 33.3146 93.2108 32.2396 93.2108C31.1646 93.2108 30.2856 93.7029 30.2856 94.3023C30.2856 94.9017 29.7987 95.3938 29.2024 95.3938C27.8323 95.3938 16.1209 105.034 14.4104 107.57C13.7068 108.615 12.4605 110.196 11.6434 111.082C10.8243 111.967 10.1558 113.22 10.1558 113.862C10.1558 114.506 9.70185 115.032 9.14888 115.032C8.5959 115.032 8.14197 116.014 8.14197 117.215C8.14197 118.413 7.79945 119.395 7.38266 119.395C6.56352 119.395 5.33998 122.229 2.43275 130.852C0.284827 137.226 -1.02332 460.781 1.02556 479.153C1.94168 487.371 5.87231 498.941 9.61518 504.434C13.3354 509.894 25.5049 521.994 27.2773 521.994C27.8241 521.994 28.2718 522.486 28.2718 523.086C28.2718 523.685 29.1776 524.177 30.2856 524.177C31.3936 524.177 32.2994 524.566 32.2994 525.04C32.2994 528.366 71.3211 532.665 80.0262 530.297L82.6281 529.59L82.3743 309.491L82.1205 89.3928L61.739 89.0976C48.3686 88.903 41.3574 89.1848 41.3574 89.9162ZM463.751 89.574C463.382 89.9744 463.081 189.141 463.081 309.945V529.59L465.683 530.299C474.384 532.665 513.406 528.366 513.406 525.04C513.406 524.566 514.311 524.177 515.419 524.177C516.527 524.177 517.433 523.685 517.433 523.086C517.433 522.486 517.904 521.994 518.481 521.994C520.534 521.994 535.549 507.044 535.549 505.002C535.549 504.246 535.906 503.466 536.341 503.264C537.623 502.676 542.356 491.352 543.788 485.445C548.379 466.512 545.129 123.761 540.359 123.761C539.928 123.761 539.575 122.779 539.575 121.578C539.575 120.377 539.123 119.395 538.568 119.395C538.015 119.395 537.563 118.413 537.563 117.215C537.563 116.014 537.109 115.032 536.556 115.032C536.003 115.032 535.549 114.544 535.549 113.949C535.549 110.851 522.133 97.5566 517.344 95.9082C516.286 95.5437 515.419 94.7877 515.419 94.2285C515.419 93.6693 514.287 93.2108 512.902 93.2108C511.52 93.2108 510.387 92.721 510.387 92.1193C510.387 91.5199 509.054 91.0278 507.426 91.0278C505.798 91.0278 504.187 90.538 503.844 89.9386C503.151 88.7196 464.862 88.3729 463.751 89.574Z" fill="#1081D1"/>
</svg>
