<svg width="546" height="531" viewBox="0 0 546 531" fill="none" xmlns="http://www.w3.org/2000/svg">
<path fill-rule="evenodd" clip-rule="evenodd" d="M418.007 0.74685C413.677 2.03981 394.05 7.71214 392.185 8.21075C391.196 8.47427 372.402 13.8035 350.418 20.0521C308.607 31.9371 301.775 33.8746 291.811 36.6596C282.926 39.1451 258.546 46.0497 253.863 47.4071C251.639 48.0517 245.982 49.6613 241.289 50.9846C236.596 52.3059 231.442 53.7714 229.837 54.2397C228.231 54.7061 224.493 55.7677 221.529 56.5962C218.565 57.4266 214.826 58.4996 213.22 58.985C211.615 59.4703 208.28 60.4068 205.81 61.0685C203.34 61.7301 200.005 62.6667 198.399 63.1482C196.795 63.6298 192.046 64.991 187.847 66.1702C180.398 68.2651 177.201 69.1713 163.819 72.9781C160.237 73.9962 154.58 75.5868 151.245 76.5119C147.91 77.439 143.262 78.749 140.916 79.4277C132.394 81.8866 125.747 83.773 119.807 85.4148C86.7571 94.5527 55.9745 103.645 57.4802 103.821C57.8656 103.867 76.3406 108.011 85.5924 110.127C89.2212 110.957 96.9372 112.703 102.742 114.008C124.018 118.785 137.221 121.771 142.262 122.947C145.103 123.606 149.852 124.668 152.816 125.303C155.78 125.938 159.216 126.725 160.451 127.053C161.686 127.381 165.728 128.304 169.433 129.104C173.138 129.906 181.424 131.751 187.847 133.205C194.268 134.659 206.697 137.465 215.466 139.438C224.234 141.414 235.045 143.856 239.492 144.864C243.938 145.871 252.324 147.767 258.129 149.075C263.934 150.383 272.22 152.251 276.543 153.225C280.865 154.199 287.837 155.775 292.036 156.727C296.235 157.678 305.026 159.659 311.571 161.131C318.117 162.602 328.323 164.911 334.251 166.261C340.179 167.612 346.748 169.089 348.847 169.542C352.485 170.331 356.262 171.18 377.813 176.066C383 177.241 391.892 179.247 397.574 180.521C403.254 181.795 409.621 183.24 411.72 183.731C424.229 186.656 442.289 190.628 443.085 190.628C444.217 190.628 545.102 124.37 545.102 123.627C545.102 123.076 544.191 122.368 523.095 106.51C496.3 86.3665 492.323 81.5985 487.42 63.7435C478.048 29.6109 473.034 20.5375 458.045 10.5919C446.38 2.85123 426.96 -1.92438 418.007 0.74685ZM56.0361 160.477V207.749L53.6795 209.025C52.3815 209.728 39.8018 216.388 25.722 223.826L0.124081 237.347L0.0166353 268.514C-0.0421018 285.657 0.0596143 299.993 0.244421 300.374C0.427796 300.755 1.99221 301.337 3.71994 301.671C19.6177 304.727 27.6933 306.289 39.6442 308.623C47.3015 310.118 55.5877 311.719 58.0575 312.179C60.5274 312.64 64.4685 313.393 66.8151 313.851C69.1617 314.312 76.2345 315.679 82.5337 316.892C88.8315 318.106 94.1179 319.275 94.2812 319.493C94.5562 319.861 95.3958 325.583 98.6994 349.603C99.7681 357.382 105.182 395.78 107.872 414.681C108.221 417.133 108.94 422.213 109.468 425.973C109.997 429.73 110.908 436.15 111.493 440.235C112.077 444.321 113 450.873 113.543 454.795C116.667 477.333 117.512 481.837 118.62 481.837C119.964 481.837 120.694 478.973 122.26 467.573C122.643 464.796 123.262 460.382 123.635 457.768C124.009 455.152 125.526 444.321 127.006 433.698C129.681 414.496 130.648 407.595 132.334 395.662C132.82 392.231 133.648 386.346 134.175 382.589C135.477 373.291 137.549 358.635 139.131 347.523C139.851 342.458 140.681 336.44 140.973 334.152C141.804 327.659 140.241 327.905 157.981 331.475C165.578 333.005 179.977 335.79 190.54 337.771C194.987 338.605 198.826 339.549 199.074 339.87C199.826 340.846 199.68 453.381 198.924 453.766C198.596 453.933 193.644 453.627 187.921 453.085C182.199 452.545 176.86 452.107 176.058 452.113L174.598 452.122V467.835V483.548L176.506 483.847C177.556 484.012 183.367 484.579 189.418 485.104C195.47 485.631 204.058 486.441 208.505 486.901C212.95 487.364 221.135 488.156 226.693 488.664C232.25 489.171 239.021 489.836 241.737 490.145C244.455 490.452 248.598 490.864 250.943 491.059C253.29 491.252 258.646 491.785 262.845 492.242C267.044 492.699 272.501 493.152 274.971 493.249L279.461 493.427V477.989V462.551L278.339 462.126C277.722 461.893 273.881 461.412 269.806 461.055C265.731 460.701 260.931 460.251 259.141 460.058L255.884 459.707V405.02V350.333L257.793 350.701C270.188 353.088 279.697 354.94 287.32 356.451C296.669 358.303 298.39 358.637 314.716 361.755C334.063 365.45 339.649 366.618 339.916 367.018C340.069 367.246 340.411 369.037 340.679 370.999C341.173 374.622 343.095 388.134 345.032 401.606C345.617 405.691 346.321 410.772 346.593 412.897C346.864 415.023 347.88 422.244 348.848 428.944C349.818 435.645 351.011 444.069 351.501 447.665C352.334 453.777 353.228 460.142 356.465 483.026C357.182 488.092 358.697 498.923 359.832 507.096C363.994 537.044 364.931 537.914 368.148 514.821C368.877 509.591 370.402 498.76 371.535 490.752C373.841 474.465 375.714 461.129 377.129 450.933C377.651 447.174 379.272 435.674 380.732 425.378C382.194 415.081 383.789 403.716 384.281 400.119C386.622 382.983 387.543 376.905 387.867 376.476C388.166 376.078 392.536 376.801 406.988 379.631C408.461 379.919 409.721 380.082 409.79 379.991C409.945 379.787 410.81 333.955 410.817 325.526L410.821 319.275L416.323 314.96C419.348 312.587 425.867 307.495 430.806 303.644L439.789 296.641L439.904 249.621L440.018 202.6L437.659 201.986C434.911 201.271 421.728 198.185 407.005 194.808C401.323 193.506 395.664 192.164 394.429 191.824C393.195 191.485 389.253 190.558 385.672 189.765C382.09 188.973 377.341 187.888 375.119 187.356C369.85 186.095 358.024 183.337 347.05 180.811C336.497 178.381 332.489 177.444 322.799 175.147C318.723 174.182 313.57 172.972 311.348 172.46C309.124 171.948 305.789 171.16 303.937 170.705C302.085 170.25 296.932 169.057 292.485 168.054C288.039 167.051 281.067 165.436 276.991 164.463C266.695 162.005 253.031 158.808 243.984 156.742C239.785 155.784 232.912 154.177 228.713 153.17C224.514 152.165 219.867 151.075 218.384 150.749C216.903 150.423 209.425 148.694 201.767 146.908C194.111 145.12 185.017 143.003 181.559 142.201C165.552 138.489 156.313 136.324 138.446 132.098C132.271 130.636 124.895 128.915 122.054 128.27C116.876 127.097 107.092 124.825 95.3327 122.067C91.8744 121.256 86.0136 119.892 82.3088 119.036C78.6041 118.179 72.3249 116.696 68.3566 115.739C64.3883 114.781 59.993 113.82 58.589 113.6L56.0361 113.204V160.477ZM540.811 140.93C538.354 142.648 530.685 147.883 523.769 152.563C516.853 157.242 508.163 163.14 504.458 165.669C491.917 174.227 482.044 180.934 470.776 188.548C452.37 200.985 448.657 203.652 448.369 204.642C448.22 205.159 448.097 228 448.097 255.399V305.218L433.276 316.403L418.456 327.591V354.53C418.456 375.913 418.572 381.381 419.017 381.04C419.327 380.805 421.095 379.225 422.947 377.531C427.637 373.242 433.242 368.194 444.729 357.909C450.162 353.044 456.023 347.768 457.752 346.183C459.482 344.6 464.635 339.959 469.205 335.868C473.773 331.777 481.454 324.855 486.27 320.485C491.087 316.115 498.463 309.463 502.662 305.699C506.861 301.936 512.924 296.495 516.134 293.608C519.346 290.72 526.115 284.642 531.18 280.102C536.242 275.563 541.649 270.666 543.192 269.222L546 266.594V202.496C546 167.243 545.837 138.265 545.639 138.104C545.44 137.941 543.268 139.215 540.811 140.93ZM92.6595 241.271C92.8915 241.577 85.9319 248.079 74.7675 257.991C72.5957 259.919 70.8895 261.779 70.9769 262.122C71.1101 262.651 77.3634 265.159 81.6556 266.406C82.8303 266.749 83.4005 266.035 90.5091 255.295C94.6866 248.982 98.41 243.486 98.7825 243.078C99.3942 242.411 119.478 245.666 122.051 246.851C122.908 247.245 122.82 247.334 111.275 257.608C102.956 265.011 101.237 266.685 101.542 267.091C101.595 267.161 104.309 268.15 107.573 269.29C114.607 271.745 112.842 272.968 121.607 259.566C125.134 254.174 128.277 249.393 128.591 248.942C129.241 248.007 129.087 247.984 148.685 251.937C152.709 252.749 152.868 252.502 142.085 262.179C136.947 266.789 132.748 270.829 132.754 271.155C132.763 271.713 142.53 275.521 144.11 275.584C144.509 275.599 148.036 270.77 151.948 264.852L159.06 254.091L161.777 254.474C163.27 254.684 166.211 255.244 168.31 255.718C170.41 256.191 175.664 257.238 179.987 258.044C199.335 261.65 210.329 263.896 210.672 264.315C211.064 264.795 207.717 268.025 199.442 275.152C193.52 280.253 193.452 280.473 197.389 281.831C199.057 282.405 201.633 283.359 203.115 283.948C206.481 285.287 205.953 285.761 213.032 275.019C219.188 265.674 219.404 265.403 220.406 265.811C220.777 265.963 225.269 266.875 230.391 267.838C235.513 268.801 239.921 269.768 240.187 269.984C240.763 270.456 240.126 271.1 231.696 278.553C228.203 281.641 225.345 284.455 225.345 284.805C225.345 285.346 235.534 289.281 236.932 289.281C237.19 289.281 240.064 285.264 243.32 280.352C248.98 271.813 249.301 271.436 250.652 271.745C252.369 272.137 264.064 274.418 276.543 276.795C281.605 277.76 287.77 278.974 290.24 279.491C292.71 280.009 295.791 280.591 297.089 280.78C300.441 281.275 300.155 281.795 293.106 288.015C289.637 291.077 286.966 293.793 287.171 294.051C287.648 294.647 297.348 298.197 298.502 298.197C299.049 298.197 301.075 295.591 304.01 291.107C306.563 287.209 308.918 283.867 309.243 283.683C309.804 283.363 316.626 284.572 337.619 288.711C342.683 289.708 348.847 290.919 351.316 291.401C353.786 291.882 356.514 292.482 357.376 292.734L358.945 293.192L356.478 295.56C355.121 296.863 352.849 298.969 351.43 300.241C350.008 301.513 348.847 302.759 348.847 303.009C348.847 303.54 348.988 303.601 354.909 305.633C357.379 306.48 359.733 307.303 360.141 307.461C360.656 307.66 362.138 305.836 365.001 301.487C369.529 294.601 369.293 294.747 374.169 295.841C375.679 296.18 380.451 297.132 384.774 297.957C405.137 301.845 407.905 302.42 408.197 302.82C408.369 303.055 403.363 310.469 397.073 319.294L385.636 335.341L382.847 335.187C381.314 335.104 373.794 333.847 366.137 332.395C334.539 326.4 313.901 322.534 304.162 320.784C302.679 320.517 297.93 319.622 293.608 318.792C280.633 316.301 272.699 314.813 264.417 313.313C260.095 312.532 255.346 311.622 253.863 311.294C252.382 310.964 242.378 309.072 231.633 307.089C220.888 305.104 204.418 302.037 195.031 300.272C185.646 298.507 176.35 296.764 174.373 296.4C172.397 296.036 166.738 294.973 161.799 294.036C156.859 293.1 151.2 292.046 149.223 291.693C147.248 291.34 144.418 290.79 142.937 290.472C141.454 290.152 132.866 288.55 123.85 286.91C114.835 285.268 106.245 283.664 104.764 283.346C103.281 283.025 99.7452 282.352 96.9043 281.848C94.0634 281.344 89.82 280.553 87.4734 280.09C78.1915 278.257 73.1974 277.315 58.9558 274.71C33.0599 269.97 31.6459 269.656 32.3178 268.767C32.5556 268.452 40.2917 264.192 55.1379 256.201C59.7079 253.74 64.053 251.365 64.7937 250.919C65.5344 250.474 70.5485 247.734 75.9351 244.828L85.7285 239.546L89.065 240.238C90.9002 240.619 92.5191 241.084 92.6595 241.271ZM228.938 345.176C234.001 346.153 238.6 347.083 239.156 347.248L240.166 347.546V402.887V458.229L237.359 457.868C235.815 457.669 231.016 457.22 226.693 456.871C222.37 456.522 217.974 456.098 216.924 455.925L215.016 455.614V399.115V342.617L217.374 343.009C218.671 343.225 223.875 344.2 228.938 345.176Z" fill="#1081D1"/>
</svg>
