<svg width="546" height="531" viewBox="0 0 546 531" fill="none" xmlns="http://www.w3.org/2000/svg">
<path d="M253.278 2.0723C239.386 4.91051 220.324 19.8112 216.124 31.164C200.293 73.9739 272.017 105.194 314.017 73.7373C357.955 40.8613 314.34 -10.9362 253.278 2.0723Z" fill="#083991"/>
<path d="M193.846 105.431C186.415 108.033 171.554 119.859 149.585 141.145C131.492 158.648 112.108 176.387 106.615 180.407C99.5077 185.847 96.9231 189.868 96.9231 196.491C96.9231 204.296 97.8923 205.242 105 205.242C114.369 205.242 114.369 204.769 108.231 215.649C103.708 223.69 102.415 224.163 88.8462 224.163H74.6308L73.6615 203.35L72.6923 182.773L52.6615 182.063L32.6308 181.353L31.6615 202.167L30.6923 222.981L19.3846 223.69C4.84616 224.873 0 227.948 0 236.226C0 243.794 7.43077 247.815 22.2923 247.815H31.9846L32.9538 268.392L33.9231 289.206L51.3692 289.915C63.3231 290.388 69.7846 289.679 71.4 287.55C73.0154 285.895 74.3077 276.197 74.3077 266.027V247.815H91.7539H109.2L110.815 257.749C112.108 263.425 114.369 279.982 116.631 294.646C121.154 326.103 126 332.962 144.092 332.962C156.369 332.962 160.246 330.833 186.738 308.364L200.631 296.774L199.662 332.962L198.692 369.385L151.2 383.577C104.677 397.768 92.0769 403.208 89.1692 410.776C84.3231 421.893 67.8462 509.404 69.7846 513.662C73.0154 521.703 84.3231 529.035 95.3077 530.691C107.262 532.347 124.062 526.907 129.231 519.811C131.169 517.446 136.338 497.342 140.862 475.582C145.385 453.822 149.585 435.847 149.585 435.611C149.908 435.611 169.292 429.934 192.231 423.312L234.231 411.013H273.323H312.092L352.154 422.839C374.123 429.461 393.508 435.611 394.8 436.557C396.092 437.503 400.938 455.715 405.462 477.001C409.985 498.288 415.154 517.682 417.092 520.048C421.938 527.143 438.738 532.347 450.692 530.691C461.677 529.035 472.985 521.703 476.215 513.662C478.154 509.404 461.677 421.893 456.831 410.776C453.923 403.208 441.323 397.768 394.8 383.577L347.308 369.385L346.338 332.962L345.369 296.538L357.646 306.945C382.846 328.941 389.631 332.962 401.585 332.962C420 332.962 424.846 326.339 429.369 293.463C431.631 278.089 434.215 261.533 435.185 256.566L437.123 247.815H454.246H471.692V266.027C471.692 276.197 472.985 285.895 474.6 287.55C476.215 289.679 482.677 290.388 494.631 289.915L512.077 289.206L513.046 268.392L514.015 247.815H523.708C538.569 247.815 546 243.794 546 236.226C546 227.948 541.154 224.873 526.615 223.69L515.308 222.981L514.339 202.167L513.369 181.353L493.338 182.063L473.308 182.773L472.338 203.35L471.369 224.163H457.154C443.585 224.163 442.292 223.69 437.769 215.649C431.631 204.769 431.631 205.242 441 205.242C448.431 205.242 449.077 204.296 449.077 194.835C449.077 185.374 447.462 183.009 434.538 174.021C426.462 168.345 407.4 151.552 391.569 136.651C373.477 119.149 359.262 108.033 352.154 105.431C342.462 101.883 331.154 101.174 273 101.174C214.846 101.174 203.538 101.883 193.846 105.431ZM309.831 148.004C322.108 152.498 330.508 157.938 337.938 165.743L348.6 176.86L349.569 168.345L350.538 159.83L366.692 176.15C375.415 184.901 387.046 195.071 392.215 198.856C400.615 204.769 400.938 205.715 396.415 209.499C393.831 211.628 390.923 215.649 390.277 218.25C389.308 222.271 386.4 222.981 366.046 223.69C346.338 224.163 342.462 225.109 340.846 228.894C335.677 240.956 296.585 257.276 273 257.276C249.415 257.276 210.323 240.956 205.154 228.894C203.538 225.109 199.662 224.163 179.954 223.69C159.6 222.981 156.692 222.271 155.723 218.25C155.077 215.649 152.492 211.864 149.908 209.736C145.708 206.424 146.031 205.478 150.231 202.877C152.815 201.221 164.123 190.814 175.431 179.934L195.462 159.83L196.431 168.581L197.4 177.333L206.769 166.689C216.138 155.573 237.785 144.693 256.2 141.145C271.708 138.307 290.446 140.672 309.831 148.004Z" fill="#1081D1"/>
<path d="M244.244 163.378C218.721 173.785 209.352 199.565 223.89 218.25C246.829 248.051 304.336 246.632 323.398 216.121C340.844 187.976 314.998 157.938 272.998 157.938C262.336 157.938 252.644 159.83 244.244 163.378Z" fill="#083991"/>
<path d="M205.138 438.212L172.83 448.855H272.984H373.138L340.83 438.212C308.846 427.805 307.876 427.805 272.984 427.805C238.092 427.805 237.122 427.805 205.138 438.212Z" fill="#083991"/>
<path d="M197.115 479.84C197.115 493.085 198.084 494.977 208.423 502.545C218.761 510.114 221.023 510.823 233.623 509.641C254.623 507.512 264.961 497.815 264.961 479.603V465.412H231.038H197.115V479.84Z" fill="#1081D1"/>
<path d="M281.062 479.839C281.062 493.084 282.032 494.976 292.047 502.308C307.232 513.425 322.739 513.425 337.924 502.308C347.939 494.976 348.909 493.084 348.909 479.839V465.411H314.986H281.062V479.839Z" fill="#1081D1"/>
</svg>
