<svg width="546" height="531" viewBox="0 0 546 531" fill="none" xmlns="http://www.w3.org/2000/svg">
<path d="M305.351 0.934894C293.977 1.63301 291.196 2.21477 286.141 5.00723C275.525 10.7085 269.206 21.4129 257.579 53.5263L249.364 76.215L248.353 115.775C247.468 156.033 246.078 170.693 242.792 175.231C238.622 181.049 232.808 182.91 215.115 184.074C206.015 184.772 178.338 187.215 153.693 189.775C129.049 192.218 99.981 195.011 89.2385 196.058C46.5216 199.898 36.2846 203.737 19.0967 222.005C8.60707 233.175 6.07944 238.527 3.80457 253.536C1.27694 270.175 -0.745166 375.357 0.265887 435.744C1.02418 481.704 1.02418 482.402 4.3101 491.477C6.07944 496.597 9.23898 502.414 11.1347 504.509C17.5802 511.257 20.9925 511.723 69.3966 513.235L113.377 514.515L128.417 507.883L143.456 501.251L198.811 502.065L254.167 502.88L260.486 506.138C264.024 507.999 271.354 511.839 276.915 514.748C286.773 519.984 306.236 526.499 320.643 529.408C331.638 531.619 367.531 530.339 381.18 527.081C394.703 524.056 414.671 515.213 425.666 507.534C430.469 504.276 435.398 501.018 436.662 500.32C438.178 499.622 452.586 499.157 474.955 499.157C494.671 499.157 512.743 498.575 515.145 497.993C526.645 495.084 537.514 484.962 540.421 474.723C541.053 472.512 542.569 454.71 543.833 435.163C545.603 406.656 546.108 384.782 545.982 323.464C545.855 274.945 545.223 244.577 544.465 239.807C543.454 234.454 541.432 230.149 537.261 223.866L531.321 215.256L532.206 206.763C533.091 198.734 532.838 198.036 529.805 194.778C526.013 190.473 515.018 186.983 486.203 180.816C469.142 177.209 466.361 176.86 460.042 177.907C453.723 179.071 452.459 178.838 448.036 176.511L443.107 173.951V162.898C443.107 146.608 439.442 89.2465 437.925 80.4037C436.282 70.5137 422.507 26.2998 418.589 18.2714C415.177 11.0576 407.215 4.19277 400.516 2.44748C394.829 0.934894 324.561 -0.112279 305.351 0.934894ZM399.885 35.2589C400.516 53.5263 400.516 53.5263 385.224 53.5263C379.158 53.5263 357.42 54.108 336.946 54.6898C302.444 55.8533 299.538 55.7369 298.147 53.8753C297.01 52.5954 296.504 47.2432 296.504 37.5859C296.504 29.674 296.631 23.2746 296.884 23.1582C298.906 22.3438 397.357 19.3186 398.242 20.0167C398.873 20.5985 399.632 27.3469 399.885 35.2589ZM277.8 59.5766C271.228 74.237 267.563 93.0861 265.541 121.592C262.76 160.338 261.244 170.228 258.464 166.272C256.315 163.014 258.463 95.5295 261.244 82.9634C262.002 79.5892 265.667 71.2118 269.585 64.347C277.674 49.803 278.685 48.2904 280.454 49.9193C281.212 50.6174 280.328 54.108 277.8 59.5766ZM416.314 70.9791C429.079 94.4824 428.447 91.4572 428.952 130.203C429.331 154.404 428.952 164.759 427.941 165.69C425.161 168.25 424.529 163.828 423.771 140.907C423.012 113.797 421.622 106.234 412.144 80.2873C408.352 69.8156 405.193 60.5074 405.193 59.5766C405.193 58.7621 406.204 58.1804 407.467 58.4131C408.731 58.6458 412.144 63.4162 416.314 70.9791ZM392.175 67.7213C393.818 68.8848 393.818 69.3502 391.796 70.6301C388.005 73.1898 307.5 72.1427 304.593 69.4666C304.087 69.0011 304.719 67.8376 306.109 66.7904C308.258 65.2779 313.692 65.0452 349.458 65.6269C378.905 66.0923 390.785 66.6741 392.175 67.7213ZM367.278 89.1301C379.284 92.388 385.73 97.1585 389.9 105.885C392.681 111.703 396.346 125.316 395.335 126.13C395.082 126.479 393.06 125.548 391.038 124.152C387.373 121.709 386.362 121.592 360.58 121.825C317.863 122.291 303.203 123.221 300.043 125.548C298.147 127.061 296.757 130.435 295.114 137.416C293.85 142.769 292.839 145.561 292.839 143.699C292.713 136.951 297.515 112.052 299.917 106.932C304.719 97.0421 312.555 90.9918 323.929 88.5484C332.397 86.6867 359.822 87.0358 367.278 89.1301ZM365.003 136.369C363.992 137.3 355.651 137.649 336.315 137.416C318.874 137.3 308.258 137.649 306.615 138.464C304.846 139.278 304.087 140.907 304.087 143.699C304.087 151.262 303.961 151.262 345.667 151.262C373.218 151.262 383.581 150.913 384.719 149.866C385.603 149.052 386.235 146.376 386.362 143.699L386.488 139.045L388.131 142.536C389.774 145.677 390.785 157.08 389.521 157.08C389.268 157.08 386.867 156.266 384.213 155.218C380.295 153.706 373.724 153.357 345.793 153.357C310.406 153.473 306.109 153.939 300.043 159.058C298.779 160.105 297.389 160.687 297.136 160.338C296.757 159.989 297.895 154.171 299.79 147.306L303.076 134.973H334.798C358.937 134.973 366.141 135.322 365.003 136.369ZM372.46 165.225C388.763 166.388 392.554 166.97 392.554 168.832C392.554 169.413 369.679 169.879 339.348 169.879C294.482 169.879 286.267 169.646 287.531 168.25C288.921 166.737 298.653 164.527 307.879 163.596C314.198 163.014 353.755 164.061 372.46 165.225ZM394.829 177.558C402.159 180.932 407.847 188.03 408.226 194.546L408.352 198.269L398.242 200.48C390.027 202.108 380.548 202.69 348.321 203.156C311.923 203.737 307.247 203.621 294.103 201.41C286.141 200.13 279.19 198.385 278.558 197.571C277.168 195.593 278.053 192.684 282.476 183.376L286.267 175.696L299.285 175.58C306.489 175.464 323.929 174.998 338.21 174.533C375.366 173.253 386.614 173.835 394.829 177.558ZM272.113 184.656C271.734 185.819 271.102 189.31 270.596 192.568C269.332 201.527 269.08 202.108 260.991 207.344C256.821 210.02 250.881 215.256 247.721 219.096C240.265 228.288 226.868 253.769 221.813 268.197C217.263 281.461 214.735 284.602 207.532 286.348C204.625 286.929 201.339 287.744 200.202 288.093C198.306 288.558 197.927 287.977 197.927 284.37C197.927 280.646 198.938 279.134 206.015 272.618C214.609 264.473 215.999 261.914 228.511 228.055C233.061 215.954 233.44 213.86 232.934 205.832C232.303 196.174 233.566 191.869 238.622 187.564C243.045 183.841 247.342 182.91 260.865 182.794C271.481 182.678 272.618 182.91 272.113 184.656ZM443.992 185.237C446.898 188.146 467.878 226.077 472.301 236.432C477.483 248.417 483.676 264.822 484.813 269.593C485.571 272.385 486.077 283.555 486.203 294.725C486.203 305.779 486.709 315.552 487.341 316.483C488.225 317.879 493.281 318.345 512.87 318.81C526.266 319.159 538.02 319.857 538.904 320.323C541.306 321.835 539.915 403.747 537.388 408.285C534.86 412.59 476.598 464.251 474.197 464.251C471.29 464.251 471.669 461.109 475.966 449.939C481.653 435.163 484.813 421.666 484.813 412.358C484.813 406.656 485.318 403.631 486.582 402.7C487.593 401.886 493.66 400.839 500.105 400.141C506.677 399.442 512.743 398.279 513.628 397.348C514.892 396.301 515.524 390.251 516.029 374.543C516.661 353.483 516.661 353.018 513.754 349.062C508.194 341.615 495.555 337.776 486.582 340.917C484.687 341.615 482.917 341.848 482.538 341.499C482.159 341.15 480.769 332.074 479.505 321.37C477.23 302.172 476.977 301.474 464.466 266.8C450.437 227.939 448.668 224.681 432.744 208.857C422.001 198.036 417.578 192.568 418.715 191.52C419.095 191.171 421.622 190.822 424.15 190.822C427.688 190.822 429.963 189.775 433.755 186.75C439.568 181.979 440.579 181.863 443.992 185.237ZM499.852 190.473C521.211 196.291 523.991 197.222 521.969 198.618C518.557 200.945 516.535 200.596 489.995 193.266C466.614 186.983 461.559 184.772 466.74 183.492C469.9 182.678 472.301 183.143 499.852 190.473ZM100.613 201.643C100.613 201.759 100.107 203.621 99.3491 205.832C97.327 212.464 100.992 215.722 114.388 219.445C121.971 221.423 130.186 228.055 134.104 234.92C142.066 249.58 143.203 264.706 136.758 270.989C127.659 279.716 109.839 282.741 79.7599 280.53C68.6383 279.716 52.967 278.552 45.005 278.087C30.7239 277.156 14.2942 274.131 11.2611 271.92C8.98622 270.407 9.23898 259.47 11.5139 250.278C15.6844 233.989 28.7017 218.165 43.6148 211.184C54.2308 206.297 77.2323 201.759 94.041 201.41C97.5797 201.41 100.613 201.41 100.613 201.643ZM223.456 205.483C224.593 205.832 225.857 206.763 226.236 207.81C226.615 208.741 223.582 217.7 219.538 227.822C215.494 237.829 211.45 248.184 210.565 250.744C208.037 258.19 203.993 264.124 199.822 266.335C196.789 268.08 192.113 268.662 175.557 269.36C151.924 270.291 153.44 270.989 151.166 257.609C147.374 234.92 138.527 223.168 118.559 214.093C106.047 208.392 106.553 207.228 120.202 209.439C124.752 210.137 134.483 209.671 154.957 207.693C170.628 206.064 185.668 204.668 188.448 204.436C194.135 203.854 220.17 204.668 223.456 205.483ZM491.764 210.602C513.754 215.256 516.535 216.187 523.359 221.19C533.344 228.52 537.009 235.269 538.652 248.533L539.41 255.631L535.871 256.329C522.222 258.656 498.336 260.983 496.693 260.052C495.555 259.354 491.385 251.326 487.341 242.017C483.423 232.709 477.988 220.725 475.461 215.373C472.933 210.02 471.543 205.948 472.428 206.297C473.312 206.53 482.033 208.508 491.764 210.602ZM419.474 209.671C424.403 213.86 442.728 238.527 446.014 245.624C447.657 249.115 450.816 257.376 452.965 264.124C455.24 270.873 458.146 279.716 459.41 283.788L461.938 291.118L459.157 288.907C442.096 274.712 435.019 269.942 431.227 269.942C428.952 269.942 426.046 270.756 424.655 271.687C420.864 274.363 417.704 273.782 404.813 268.08C389.016 261.216 371.701 257.26 353.882 256.329C313.819 254.351 278.558 265.87 241.023 293.329C222.571 306.826 219.664 300.543 230.154 269.942C234.577 257.376 242.666 241.552 250.754 230.266C257.958 220.143 272.745 208.275 278.053 208.275C279.822 208.275 289.933 209.322 300.549 210.602C339.98 215.256 373.597 214.791 395.714 209.555C408.605 206.414 415.682 206.53 419.474 209.671ZM189.838 282.973C179.854 344.989 179.349 383.037 187.816 436.326C192.619 466.461 192.619 470.417 188.448 474.141C181.623 479.842 170.881 482.402 167.722 479.028C166.837 477.864 166.331 448.543 166.331 377.801V278.087H178.464H190.597L189.838 282.973ZM369.806 282.392C412.396 290.187 449.932 318.577 465.729 354.996C480.137 388.156 478.873 423.295 462.191 454.361C444.75 486.707 415.303 508.814 375.493 519.169C366.646 521.496 362.602 521.845 342.634 521.729C321.781 521.729 319 521.38 308.511 518.587C261.623 505.556 227.121 472.977 214.862 429.927C211.955 419.804 211.45 415.964 211.45 400.839C211.45 385.829 211.955 381.757 214.735 372.216C221.055 350.109 232.303 332.191 250.249 315.785C256.568 310.084 265.414 303.102 269.964 300.31C300.422 282.159 334.798 275.876 369.806 282.392ZM440.706 283.904C448.541 291.467 459.031 304.033 461.938 309.386C466.614 317.763 464.339 316.948 455.872 307.175C447.53 297.634 439.442 290.071 432.617 285.417C426.172 280.996 425.919 279.25 431.985 279.25C434.892 279.25 437.167 280.414 440.706 283.904ZM47.5326 286.231C63.2039 287.395 81.782 288.791 88.9858 289.257C100.739 289.955 102.129 290.304 103.014 292.514C103.646 293.911 104.404 314.621 104.783 338.59C105.289 362.559 106.426 395.021 107.437 410.729C110.723 460.178 110.091 471.232 103.014 486.241C98.9699 494.968 95.684 496.131 75.9685 496.015C53.3462 495.899 16.4427 489.732 11.1347 485.194C9.49174 483.682 8.22793 480.773 7.84878 476.817C6.58497 466.811 6.3322 323.464 7.59602 302.172L8.60707 282.624L13.9151 283.323C16.6955 283.672 31.8613 284.951 47.5326 286.231ZM229.017 308.571C229.269 308.92 225.731 315.785 221.181 323.93C216.631 332.074 212.587 338.474 212.334 338.241C211.45 337.543 215.494 312.76 217.01 309.618C218.148 307.175 218.906 306.942 223.329 307.524C226.11 307.873 228.637 308.338 229.017 308.571ZM488.352 357.905C495.176 363.257 497.451 367.329 497.451 374.078C497.451 380.128 495.429 384.433 490.753 388.505L487.467 391.181L486.835 387.342C486.456 385.131 485.571 379.197 484.813 374.194C483.928 369.191 482.538 362.908 481.527 360.348C480.516 357.788 479.758 355.345 479.758 354.763C479.758 352.552 483.296 353.832 488.352 357.905Z" fill="#083991"/>
<path d="M348.953 27.3469C330.88 28.1613 312.808 28.9758 308.89 28.9758C301.939 29.0921 301.56 29.2085 301.56 32.1173V35.0261L313.313 34.328C327.215 33.5135 380.801 31.4192 387.12 31.4192C390.911 31.4192 391.417 31.0701 391.038 28.7431C390.532 25.4852 390.785 25.4852 348.953 27.3469Z" fill="#1081D1"/>
<path d="M347.057 35.4916C328.605 36.306 310.912 37.0042 307.626 37.1205C302.444 37.2369 301.56 37.5859 301.56 39.4476C301.56 40.7274 301.939 42.0073 302.571 42.24C303.076 42.4727 320.011 42.0073 340.106 41.1929C360.327 40.3784 380.043 39.6803 384.087 39.6803C390.911 39.5639 391.291 39.4476 391.291 36.6551C391.291 33.2809 396.346 33.3972 347.057 35.4916Z" fill="#1081D1"/>
<path d="M343.897 43.7526C325.825 44.5671 308.89 45.2652 306.236 45.2652C301.939 45.3815 301.433 45.7306 301.812 47.9413C302.192 50.3847 302.697 50.501 314.83 50.152C321.781 50.0356 338.589 49.4539 352.112 48.8721C365.635 48.2903 380.043 47.7086 384.087 47.7086C390.911 47.7086 391.291 47.5922 391.291 44.7998C391.291 41.4255 394.576 41.4255 343.897 43.7526Z" fill="#1081D1"/>
<path d="M45.8897 224.099C26.5533 228.404 17.201 238.527 17.201 255.398C17.201 260.168 17.833 261.914 20.1078 263.775C28.5754 270.989 38.8123 272.618 72.809 272.036C105.036 271.455 110.723 270.175 119.444 261.099C131.576 248.417 124.246 231.429 104.657 226.543C87.4692 222.121 59.6653 220.958 45.8897 224.099ZM63.7095 236.782C65.7316 237.48 65.858 256.096 63.7095 258.074C61.8138 259.819 37.043 259.936 33.5043 258.307C31.4822 257.26 31.103 255.747 31.103 247.253C31.103 240.039 31.6086 237.247 32.8724 236.549C34.6417 235.618 60.5499 235.851 63.7095 236.782Z" fill="#1081D1"/>
<path d="M154.831 221.423C149.396 225.263 148.512 231.546 153.061 235.618C159.507 241.668 170.123 237.712 170.123 229.335C170.123 222.237 160.644 217.351 154.831 221.423Z" fill="#1081D1"/>
<path d="M402.665 215.373C390.659 217.583 358.305 220.958 341.243 221.772C330.375 222.237 314.324 222.005 299.917 221.074L276.283 219.561L271.102 222.819C261.623 228.986 254.925 235.153 250.375 242.017C245.699 248.999 235.841 274.829 235.841 279.832C235.841 285.301 241.023 283.206 263.14 268.778C296.378 247.021 299.158 245.857 326.078 240.738C345.793 237.014 362.223 236.665 383.329 239.574C410.627 243.297 430.848 250.046 434.008 256.561C436.03 260.634 440.2 262.379 441.717 259.819C442.601 258.19 440.327 253.304 431.48 238.527C417.072 213.976 415.809 212.929 402.665 215.373Z" fill="#1081D1"/>
<path d="M329.364 298.565C303.961 301.474 280.201 311.364 262.76 326.373C251.007 336.379 243.298 345.804 236.473 358.835C227.5 375.823 225.225 385.946 225.099 407.238C225.099 422.48 225.604 426.902 228.132 435.744C239.633 476.235 272.871 505.905 317.105 514.981C328.353 517.308 356.03 517.657 366.646 515.562C391.417 510.792 408.858 502.531 425.919 487.638C441.085 474.141 451.322 458.666 457.767 439.119C460.927 429.578 461.306 427.134 461.306 408.402C461.432 386.295 460.295 379.895 453.218 364.071C445.256 346.386 428.32 327.537 410.753 316.599C392.934 305.546 370.69 299.263 347.689 298.448C340.106 298.216 331.765 298.332 329.364 298.565ZM371.322 305.895C403.17 313.458 431.101 334.169 445.887 361.279C447.657 364.42 450.69 371.518 452.586 376.986C457.262 390.134 458.526 414.917 455.113 428.996C445.635 468.207 416.188 497.528 374.229 509.163C363.992 511.955 360.833 512.304 343.897 512.304C321.402 512.304 311.417 510.326 293.345 502.065C242.539 478.911 217.642 425.156 234.83 375.823C247.595 339.405 281.844 311.364 322.665 304.266C335.556 302.055 358.179 302.753 371.322 305.895Z" fill="#1081D1"/>
<path d="M330.248 326.955C309.016 330.096 291.07 338.823 276.536 353.134C267.437 361.977 260.738 372.681 256.315 384.898C252.145 396.534 251.639 418.524 255.178 430.509C263.898 459.829 290.312 483.565 322.034 490.43C333.534 492.873 353.376 492.641 365.003 489.965C395.967 482.634 420.358 460.644 430.09 431.09C431.859 425.738 432.365 420.502 432.238 408.983C432.238 395.835 431.733 392.578 428.826 384.549C418.842 356.741 393.439 334.867 364.119 328.7C353.629 326.489 338.969 325.791 330.248 326.955ZM370.438 332.074C410.374 344.64 435.651 381.059 430.595 418.641C427.941 438.188 420.232 452.615 405.193 466.578C394.197 476.7 383.455 482.867 369.174 487.172C360.327 489.848 356.915 490.197 342.634 490.314C328.1 490.314 325.067 489.965 316.094 487.172C262.002 470.65 238.369 414.917 265.794 368.842C272.492 357.672 288.163 343.826 301.181 337.659C317.105 330.096 326.962 328.002 345.161 328.467C357.673 328.816 362.097 329.514 370.438 332.074Z" fill="#1081D1"/>
<path d="M324.561 338.008C301.812 342.779 282.35 356.508 272.618 374.776C265.794 387.691 263.645 396.068 263.645 409.798C263.645 424.109 265.288 430.974 271.354 443.191C275.272 450.987 278.179 454.594 286.015 461.807C296.884 471.697 303.834 475.77 317.989 480.307C326.33 482.867 329.49 483.333 343.266 483.333C356.915 483.216 360.453 482.867 369.3 480.191C405.824 469.138 428.068 436.094 422.886 400.606C418.715 371.052 399.758 349.411 370.438 340.219C357.926 336.379 337.073 335.332 324.561 338.008ZM364.119 357.09C379.663 362.21 392.175 372.914 397.736 385.946C399.758 390.832 400.769 396.068 401.148 404.562C401.78 418.408 399.126 428.531 392.428 437.839C378.02 457.968 347.689 465.647 320.517 456.222C301.18 449.474 288.416 432.37 286.773 411.427C284.751 384.2 301.054 362.908 329.743 355.461C338.589 353.134 354.261 353.949 364.119 357.09Z" fill="#1081D1"/>
<path d="M332.523 362.326C317.61 365.7 306.362 374.194 299.411 387.225C294.861 395.603 294.609 396.65 294.609 407.122C294.609 417.244 294.988 418.99 298.526 425.971C303.329 435.279 312.428 443.889 322.539 448.543C329.49 451.801 331.007 452.034 343.897 452.034C356.283 452.034 358.558 451.685 364.75 449.009C375.114 444.587 384.213 436.326 389.016 427.251C392.934 420.037 393.186 418.757 393.186 407.238C393.186 396.417 392.807 394.323 389.774 388.273C382.949 375.008 368.542 364.537 353.25 361.861C345.035 360.348 340.485 360.464 332.523 362.326ZM361.717 371.518C378.526 379.43 386.614 397.93 380.422 414.568C377.768 421.782 368.289 431.323 360.327 434.697C353.25 437.839 340.485 438.421 333.029 436.094C321.275 432.487 312.176 422.829 308.637 410.38C303.834 393.508 313.313 376.521 331.133 370.005C340.106 366.747 352.871 367.329 361.717 371.518Z" fill="#1081D1"/>
<path d="M332.397 376.87C309.774 386.295 307.879 414.917 329.111 426.553C342.507 433.999 355.651 432.37 366.646 422.015C376.504 412.707 378.652 402.468 373.092 391.53C369.932 385.131 362.855 378.732 356.409 376.288C350.469 373.961 338.589 374.31 332.397 376.87Z" fill="#1081D1"/>
<path d="M10.8819 291.467C9.49172 292.98 9.74449 304.033 11.893 350.574C13.4096 382.106 15.3053 421.898 16.0636 439.235C17.5801 473.559 18.3384 476.933 24.7839 479.958C28.8281 481.82 63.9622 486.241 75.3365 486.358C81.6556 486.358 89.2385 482.867 89.2385 479.958C89.2385 477.515 85.8262 476.351 69.6494 473.559C46.6479 469.487 43.362 467.16 36.6638 450.754C32.3668 440.282 31.9876 437.606 26.6796 388.04C21.3716 338.706 20.1078 316.018 22.1299 303.219C23.3937 295.074 23.2673 293.794 21.498 291.816C18.844 289.257 13.0304 289.024 10.8819 291.467Z" fill="#1081D1"/>
<path d="M38.6859 292.747C35.0209 294.027 31.103 295.889 31.103 296.587C31.103 297.052 35.7791 298.216 41.5927 299.379C56.1266 302.404 68.8911 308.222 75.2102 314.854C82.7931 322.882 84.9416 329.515 87.2165 351.971C88.9858 370.122 90.376 375.241 92.6509 373.147C93.6619 372.216 89.6177 315.203 88.1011 307.291C86.4582 299.496 83.8042 297.867 68.7647 295.54C52.7143 292.98 41.2136 291.933 38.6859 292.747Z" fill="#1081D1"/>
</svg>
