<svg width="546" height="531" viewBox="0 0 546 531" fill="none" xmlns="http://www.w3.org/2000/svg">
<path d="M496.444 189.199C486.117 191.877 479.418 204.873 481.492 218.179L511.312 408.595C513.104 420.039 520.96 428.341 530.005 428.341C531.272 428.341 532.562 428.179 533.809 427.848C538.139 426.717 541.781 423.704 544.461 419.676L514.462 196.975C510.931 191.871 505.821 188.703 500.233 188.703C498.98 188.703 497.699 188.868 496.444 189.199Z" fill="#1081D1"/>
<path d="M286.506 64.7133C305.044 57.0098 322.04 60.3271 337.878 74.8906C350.944 86.9025 361.967 96.6312 378.592 96.8636C392.777 97.061 409.232 93.0279 419.918 80.0021C430.96 66.5613 436.093 40.4089 422.514 26.3289C415.658 19.2123 407.178 15.5109 400.124 8.80532C400.091 8.78383 400.08 8.74353 400.036 8.7207H391.272H301.326H263.232C257.183 8.7207 251.312 9.68364 245.66 11.349C237.775 24.7428 232.942 44.8194 238.016 60.6776C246.574 87.3752 271.823 70.8186 286.506 64.7133Z" fill="#1081D1"/>
<path d="M545.833 431.853C542.796 434.7 539.271 436.783 535.368 437.798C533.595 438.255 531.798 438.482 530.005 438.482C517.225 438.482 506.112 426.755 503.596 410.596L473.771 220.175C470.839 201.39 480.31 183.03 494.895 179.244C496.661 178.786 498.454 178.554 500.247 178.554C504.632 178.554 508.799 180.019 512.51 182.495L507.937 148.525C508.021 146.758 508.152 145.064 508.152 143.204V140.67C508.152 -50.7137 472.881 8.72642 429.367 8.72642H415.483C428.31 18.3397 439.446 29.6021 438.374 51.5871C436.309 94.5083 399.446 110.651 370.704 106.226C363.461 105.113 355.904 102.599 349.566 97.7973C340.355 90.8069 332.585 80.49 322.668 74.9675C297.475 60.8942 277.509 88.0229 252.696 85.4175C224.595 82.4602 224.981 42.4198 234.854 15.5999C212.792 26.6086 195.665 50.0789 188.389 79.2705L30.7608 79.8212L0 101.394L28.7286 124.114L185.346 126.77C190.657 176.166 223.426 214.244 263.232 214.244H301.326H366.692C374.998 226.472 425.029 306.357 403.915 429.22C380.937 563.004 434.289 529.755 474.833 520.57C527.573 501.301 548.093 482.508 545.833 431.853ZM166.42 118.921L149.649 118.635L169.92 86.8478L186.655 86.7887C186.611 87.017 186.544 87.2184 186.507 87.436L166.42 118.921ZM100.822 87.0976L117.812 87.0385L98.2109 117.764L81.4375 117.476L100.822 87.0976ZM62.8113 117.169L46.0379 116.883L64.9571 87.2265L81.9453 87.1634L62.8113 117.169ZM135.048 86.9753L152.036 86.9163L131.988 118.341L115.219 118.058L135.048 86.9753ZM20.186 108.523L33.699 87.3393L50.6955 87.2775L31.9473 116.64L30.4146 116.617L20.186 108.523Z" fill="#083991"/>
<path d="M343.007 227.773C343.007 227.773 365.333 257.385 365.333 282.751L387.001 278.526L366.644 227.775H343.007V227.773Z" fill="#1081D1"/>
</svg>
