<svg width="546" height="531" viewBox="0 0 546 531" fill="none" xmlns="http://www.w3.org/2000/svg">
<path d="M52.9518 1.8671C50.3918 4.56348 47.4051 19.3936 48.7918 22.2974C49.4318 23.5418 52.7385 26.4456 56.0452 28.6235C64.5786 34.12 68.312 40.2387 69.0587 49.5723C69.3787 55.1725 69.0587 57.6615 67.4587 61.2912C63.0853 70.8322 54.9785 76.7436 44.205 78.2992C36.9516 79.4399 34.8182 81.9289 33.1116 90.9514C32.3649 95.0997 32.0449 99.4554 32.4715 100.596C32.8982 101.841 35.7783 104.433 38.8716 106.404C56.0452 117.086 58.0719 136.894 43.3517 150.064C38.765 154.213 35.4583 155.561 26.2848 157.117C20.4181 158.05 18.498 160.539 17.0047 168.835C15.1913 178.48 15.938 180.762 21.8047 184.184C38.9783 193.932 42.1783 214.155 28.7382 227.119C23.7248 232.097 16.258 235.415 10.3913 235.415C6.01788 235.415 2.49784 239.252 1.11115 245.682C-0.595535 253.668 -0.382199 257.505 2.07116 260.098C3.35118 261.342 4.41786 262.379 4.6312 262.379C4.84453 262.379 101.912 281.254 220.314 304.38C338.609 327.507 436.85 346.382 438.557 346.382C443.357 346.382 446.343 342.648 447.943 334.663C449.757 325.226 449.01 323.255 442.183 319.003C417.863 303.862 425.543 272.75 454.664 268.083C460.53 267.15 462.45 264.661 463.944 256.364C465.757 246.719 465.01 244.438 459.144 241.015C449.97 235.83 443.677 225.771 443.677 216.23C443.677 205.963 452.637 194.347 462.984 191.444C466.077 190.51 469.597 189.784 470.877 189.784C475.25 189.784 478.451 186.154 479.837 179.828C482.184 168.006 481.864 167.176 472.477 160.435C462.13 153.072 457.864 142.286 461.17 131.397C464.37 120.819 472.37 114.078 484.744 111.589C488.904 110.759 492.637 109.308 493.384 108.374C495.411 105.678 498.291 91.7811 497.437 88.6699C497.011 87.1143 495.731 85.455 494.451 84.9364C491.144 83.4845 62.0186 0.000366211 58.0719 0.000366211C56.1518 0.000366211 53.9118 0.830017 52.9518 1.8671ZM145.326 66.5803C148.206 68.0322 151.406 73.7361 151.406 77.2621C151.406 82.24 122.713 221 120.686 225.459C117.379 232.926 109.059 235.415 102.232 230.956C98.179 228.363 95.939 224.733 95.939 220.896C95.939 219.444 102.659 185.636 110.873 145.709C121.326 95.0997 126.446 72.2841 127.726 70.5211C131.886 65.0247 139.033 63.3654 145.326 66.5803ZM395.676 116.049C398.983 118.33 401.33 122.893 401.223 126.627C401.116 131.19 372.103 270.883 370.609 274.513C367.196 282.498 355.462 284.469 349.596 278.039C347.996 276.276 346.289 273.579 345.969 272.128C345.222 269.224 373.169 130.464 376.049 122.789C379.249 113.974 388.103 110.967 395.676 116.049Z" fill="#1081D1"/>
<path d="M481.757 262.068C481.437 262.587 480.904 264.35 480.584 266.113C478.451 275.654 467.997 284.469 457.01 285.921C449.543 286.854 445.277 291.002 446.13 296.395C446.77 300.232 447.41 300.958 456.477 307.284C462.664 311.64 467.144 319.833 467.144 326.678C467.144 333.833 464.264 346.071 461.49 350.945C458.397 356.442 451.357 361.523 443.89 363.701L437.81 365.464L254.128 329.581L70.3387 293.699V300.129C70.3387 307.699 67.8853 313.507 62.4453 318.692C56.3652 324.603 52.8451 325.952 42.0717 326.47C36.8449 326.678 31.6182 327.404 30.5515 327.922C27.9915 329.27 22.3381 340.885 22.3381 344.93C22.3381 346.9 23.2981 348.871 24.7915 350.219C28.4182 353.538 425.223 530.98 428.957 530.98C433.97 530.98 435.57 529.529 439.303 521.647C443.57 512.832 443.25 510.861 436.743 504.12C430.663 497.794 428.743 493.231 428.743 485.142C428.743 477.364 431.197 471.66 436.423 466.475C442.29 460.771 447.197 459.008 458.077 458.593C463.41 458.386 468.317 457.66 469.17 457.037C471.304 455.274 476.744 443.348 476.744 440.341C476.744 438.681 474.93 435.674 471.944 432.459C464.69 424.473 463.41 421.673 463.41 412.754C463.41 403.939 465.544 398.961 471.624 393.361C477.49 387.968 483.464 385.791 493.597 385.791C501.064 385.791 502.664 385.48 504.264 383.716C507.144 380.398 511.624 369.301 511.091 366.605C510.878 365.257 508.744 362.249 506.398 359.968C495.304 348.664 494.664 332.485 504.798 321.7C509.811 316.307 515.998 313.922 525.171 313.507C538.398 312.885 538.185 312.988 542.345 304.899C546.291 297.329 546.931 292.973 544.798 290.069C543.731 288.721 484.531 261.342 482.717 261.342C482.397 261.342 481.971 261.653 481.757 262.068Z" fill="#083991"/>
</svg>
